<svg xmlns="http://www.w3.org/2000/svg" width="25" height="25" viewBox="0 0 25 25"><defs><style>.a,.b{fill:#5f5f5f;}.b{fill-rule:evenodd;}</style></defs><circle class="a" cx="1.4" cy="1.4" r="1.4" transform="translate(16.1 14.225)"/><path class="b" d="M42.334,19.88c-.912,0-2.737.45-2.8,1.35a3.412,3.412,0,0,0,5.6,0C45.071,20.33,43.247,19.88,42.334,19.88Z" transform="translate(-24.834 -1.755)"/><path class="b" d="M46.524,15.493V9.468L37.149,5.38,27.774,9.468v6.138A12.766,12.766,0,0,0,37.149,27.88a11.457,11.457,0,0,0,2-.687,7.494,7.494,0,1,0,7.375-11.7Zm-8.75,7.388a7.207,7.207,0,0,0,.288,2.025,8.234,8.234,0,0,1-.913.375,10.26,10.26,0,0,1-6.875-9.675v-4.5l6.875-3,6.875,3v4.388A7.5,7.5,0,0,0,37.774,22.88Zm7.5,5a5,5,0,1,1,5-5A5,5,0,0,1,45.274,27.88Z" transform="translate(-27.774 -5.38)"/></svg>