<svg xmlns="http://www.w3.org/2000/svg" width="11.391" height="11.391" viewBox="0 0 11.391 11.391"><defs><style>.a{fill:#ff4e56;}</style></defs><path class="a" d="M5.24,4.266A7.792,7.792,0,0,0,5.525,5.9l-.759.759a9.382,9.382,0,0,1-.481-2.4H5.24m6.24,7.607a8.07,8.07,0,0,0,1.645.285V13.1a9.762,9.762,0,0,1-2.4-.475l.759-.753M5.848,3H3.633A.635.635,0,0,0,3,3.633,10.757,10.757,0,0,0,13.758,14.391a.635.635,0,0,0,.633-.633V11.55a.635.635,0,0,0-.633-.633,7.219,7.219,0,0,1-2.259-.361.531.531,0,0,0-.2-.032.648.648,0,0,0-.449.184L9.461,12.1a9.587,9.587,0,0,1-4.17-4.17L6.683,6.538a.635.635,0,0,0,.158-.645,7.189,7.189,0,0,1-.361-2.259A.635.635,0,0,0,5.848,3Z" transform="translate(-3 -3)"/></svg>