<svg xmlns="http://www.w3.org/2000/svg" xmlns:xlink="http://www.w3.org/1999/xlink" width="27" height="23" viewBox="0 0 27 23"><defs><style>.a{fill:#053c6d;}.b{clip-path:url(#a);}</style><clipPath id="a"><rect class="a" width="27" height="23" transform="translate(0 0)"/></clipPath></defs><g transform="translate(-105.205 -260.89)"><g transform="translate(105.205 260.89)"><g class="b" transform="translate(0 0)"><path class="a" d="M132.317,270.1l-4.875-8.307a.8.8,0,0,0-1.095-.289l-2.922,1.687-2.632-.968a2.939,2.939,0,0,0-2.49.213l-4,2.307-3.543-2.046a.8.8,0,0,0-1.11.316l-4.56,8.5a.8.8,0,0,0,.306,1.076l1.81,1.045-.908,1.572a2.409,2.409,0,0,0,2.582,3.563,2.405,2.405,0,0,0,2.784,1.607,2.405,2.405,0,0,0,2.784,1.607,2.409,2.409,0,0,0,4.377.455l.1-.18L121.948,284a2.41,2.41,0,0,0,3.59-1.737,2.409,2.409,0,0,0,3.019-2.172,2.409,2.409,0,0,0,2.149-3.722,2.409,2.409,0,0,0-.041-4.034l1.468-1.209a.8.8,0,0,0,.183-1.027Zm-13.21-6.272a1.334,1.334,0,0,1,1.132-.1l2.985,1.1a.8.8,0,0,0,.679-.058l2.557-1.476,4.124,7.028-1.4,1.154L119.53,265.9a.8.8,0,0,0-.8,0l-4.442,2.565a.8.8,0,0,1-.8-1.392Zm-11.118,13.281a.8.8,0,0,1-.294-1.1l1.339-2.32a.8.8,0,0,1,1.392.8l-1.339,2.32a.8.8,0,0,1-1.1.294Zm2.784,1.607a.8.8,0,0,1-.294-1.1l1.875-3.248a.8.8,0,0,1,1.392.8l-1.875,3.248a.8.8,0,0,1-1.1.294Zm2.784,1.607a.8.8,0,0,1-.294-1.1l1.339-2.32a.8.8,0,1,1,1.392.8l-1.339,2.32a.8.8,0,0,1-1.1.294Zm2.784,1.607a.8.8,0,0,1-.294-1.1l.8-1.392a.8.8,0,0,1,1.392.8l-.8,1.392a.8.8,0,0,1-1.1.294Zm13.044-3.843a.8.8,0,0,1-1.1.294l-4.176-2.411a.8.8,0,0,0-.8,1.392l3.248,1.875a.8.8,0,1,1-.8,1.392l-3.247-1.875a.8.8,0,0,0-.8,1.392l1.856,1.071a.8.8,0,1,1-.8,1.392l-3.024-1.746a2.409,2.409,0,0,0-2.025-3.426,2.408,2.408,0,0,0-2.248-2.535,2.409,2.409,0,0,0-3.722-2.149,2.409,2.409,0,0,0-3.617-.451l-1.237-.714,3.8-7.085,2.021,1.167-.023.013a2.411,2.411,0,0,0,2.411,4.176l4.04-2.333,10.64,6.143a.8.8,0,0,1-.8,1.392l-3.247-1.875a.8.8,0,1,0-.8,1.392l4.176,2.411a.8.8,0,0,1,.294,1.1Zm0,0" transform="translate(-105.043 -261.358)"/></g></g></g></svg>