<svg xmlns="http://www.w3.org/2000/svg" width="72.313" height="54.051" viewBox="0 0 72.313 54.051"><defs><style>.a{fill:#efc356;}.b{fill:#ffaf3c;}.c{fill:#eaf6ff;}.d{fill:#ffc850;}.e{fill:#ffdc64;}.f{fill:#ff507d;}.g{fill:#e83d5a;}.h{fill:#afb9d2;}</style></defs><g transform="translate(-728 -377.949)"><path class="a" d="M489.608,233.99l-10.683-6.41-1.413,2.058V243.6l1.413,1.413Zm0,0" transform="translate(298.214 161.689)"/><path class="b" d="M398.792,233.99l10.683-6.41,1.412,2.058V243.6l-1.412,1.413-9.233-8.31Zm0,0" transform="translate(329.208 161.689)"/><path class="c" d="M444.187,247.279H427.095l-10.683-9.614V209.9a.989.989,0,0,1,.988-.989h36.48a.989.989,0,0,1,.989.989v27.767Zm0,0" transform="translate(322.271 169.04)"/><path class="d" d="M420.157,257.379l.068,2.205-14.982,11.986-6.45,2.9V238.151l3.626,3.263Zm0,0" transform="translate(329.208 157.527)"/><path class="b" d="M402.418,241.414v30.739l-3.626,2.321V238.151Zm0,0" transform="translate(329.208 157.527)"/><path class="d" d="M482.9,274.473V238.152L461.536,257.38l-1.06,1.412,15.976,12.78Zm0,0" transform="translate(304.922 157.526)"/><path class="e" d="M398.792,286.959h59.823L437.25,269.867H420.157Zm0,0" transform="translate(329.208 145.039)"/><path class="d" d="M458.615,296.177H398.792l3.625-2.9H454.99Zm0,0" transform="translate(329.208 135.823)"/><path class="f" d="M501.977,228.754a12.387,12.387,0,1,1-12.386-12.386,12.387,12.387,0,0,1,12.386,12.386Zm0,0" transform="translate(298.336 166.103)"/><path class="g" d="M491.041,241.055a12.186,12.186,0,0,1-1.45.085,12.386,12.386,0,1,1,1.45-24.687,12.386,12.386,0,0,0,0,24.6Zm0,0" transform="translate(298.336 166.103)"/><path class="c" d="M497.8,236.741h-1.39v-8.821a1.088,1.088,0,0,0-1.087-1.088h-2.478a1.088,1.088,0,0,0,0,2.175h1.39v7.734h-1.39a1.087,1.087,0,0,0,0,2.175H497.8a1.087,1.087,0,1,0,0-2.175Zm0,0" transform="translate(292.607 161.983)"/><path class="h" d="M450.9,224.177H428.209a1.088,1.088,0,1,1,0-2.175H450.9a1.088,1.088,0,0,1,0,2.175Zm0,0" transform="translate(318.054 163.885)"/><path class="h" d="M450.9,231.355H428.209a1.088,1.088,0,1,1,0-2.175H450.9a1.088,1.088,0,0,1,0,2.175Zm0,0" transform="translate(318.054 161.059)"/><path class="h" d="M450.9,239.035H428.209a1.088,1.088,0,1,1,0-2.175H450.9a1.088,1.088,0,0,1,0,2.175Zm0,0" transform="translate(318.054 158.035)"/><path class="h" d="M450.9,246.464H428.209a1.088,1.088,0,1,1,0-2.175H450.9a1.088,1.088,0,0,1,0,2.175Zm0,0" transform="translate(318.054 155.11)"/><path class="h" d="M450.9,253.866H428.209a1.087,1.087,0,1,1,0-2.175H450.9a1.087,1.087,0,0,1,0,2.175Zm0,0" transform="translate(318.054 152.196)"/></g></svg>