<svg xmlns="http://www.w3.org/2000/svg" width="35.683" height="76.163" viewBox="0 0 35.683 76.163"><defs><style>.a{fill:#959cb5;}.b{fill:#f0c087;}.c{fill:#d29b6e;}.d{fill:#e6af78;}.e{fill:#5b5d6e;}.f{fill:#ffdc64;}</style></defs><g transform="translate(-64.178 -208.686)"><path class="a" d="M98.409,227.83H95.952v-6.563a3.662,3.662,0,0,0-1.079-2.606L91.4,215.186l1.737-1.737,3.474,3.474a6.1,6.1,0,0,1,1.8,4.344Z" transform="translate(-4.105 -0.718)"/><path class="b" d="M98.631,227.491H65.408a1.23,1.23,0,0,0-1.23,1.228c0,.151,0,2.072,0,2.458H99.861v-2.458A1.229,1.229,0,0,0,98.631,227.491Z" transform="translate(0 -2.836)"/><path class="c" d="M98.631,230.384H65.408a1.229,1.229,0,0,0-1.14,1.685L68.2,241.9a1.229,1.229,0,0,0,1.14.772H94.7a1.229,1.229,0,0,0,1.141-.772l3.93-9.828A1.228,1.228,0,0,0,98.631,230.384Z" transform="translate(0 -3.272)"/><path class="d" d="M92.26,285.744h-17.2V240.292a1.228,1.228,0,0,1,1.229-1.228H91.032a1.228,1.228,0,0,1,1.228,1.228v45.452Z" transform="translate(-1.641 -4.581)"/><path class="e" d="M89.092,214.617l-1.737-1.737a2.456,2.456,0,0,1,0-3.474h0a2.457,2.457,0,0,1,3.475,0l1.737,1.737a2.457,2.457,0,0,1,0,3.475h0A2.456,2.456,0,0,1,89.092,214.617Z" transform="translate(-3.387)"/><path class="f" d="M86.99,249.763H82.077a1.228,1.228,0,0,1-1.229-1.228v-2.457a1.229,1.229,0,0,1,1.229-1.229H86.99a1.229,1.229,0,0,1,1.229,1.229v2.457A1.228,1.228,0,0,1,86.99,249.763Z" transform="translate(-2.514 -5.454)"/><path class="b" d="M96.083,297.5H69.058a1.229,1.229,0,0,1-1.229-1.229v-2.457a1.229,1.229,0,0,1,1.229-1.229H96.083a1.228,1.228,0,0,1,1.228,1.229v2.457A1.228,1.228,0,0,1,96.083,297.5Z" transform="translate(-0.551 -12.653)"/></g></svg>