<svg xmlns="http://www.w3.org/2000/svg" width="13.862" height="15.772" viewBox="0 0 13.862 15.772"><defs><style>.a{fill:#5f5f5f;}</style></defs><path class="a" d="M125.159,8.317A4.159,4.159,0,1,0,121,4.159,4.163,4.163,0,0,0,125.159,8.317Zm0-7.393a3.234,3.234,0,1,1-3.234,3.234A3.238,3.238,0,0,1,125.159.924Z" transform="translate(-118.228)"/><path class="a" d="M43.1,301.793A5.928,5.928,0,0,0,38.855,300H37.007a5.928,5.928,0,0,0-4.25,1.793A6.06,6.06,0,0,0,31,306.068a.462.462,0,0,0,.462.462H44.4a.462.462,0,0,0,.462-.462A6.06,6.06,0,0,0,43.1,301.793Zm-11.16,3.814a5.114,5.114,0,0,1,5.062-4.682h1.848a5.114,5.114,0,0,1,5.062,4.682Z" transform="translate(-31 -290.759)"/></svg>