<svg xmlns="http://www.w3.org/2000/svg" width="9.735" height="10.817" viewBox="0 0 9.735 10.817">
  <path id="Path_909" data-name="Path 909" d="M11.654,2.082h-.541V1H10.031V2.082H5.7V1H4.623V2.082H4.082A1.085,1.085,0,0,0,3,3.163v7.572a1.085,1.085,0,0,0,1.082,1.082h7.572a1.085,1.085,0,0,0,1.082-1.082V3.163A1.085,1.085,0,0,0,11.654,2.082Zm0,8.654H4.082V5.327h7.572ZM4.082,4.245V3.163h7.572V4.245ZM5.163,6.409h5.409V7.49H5.163Zm0,2.163H8.949V9.654H5.163Z" transform="translate(-3 -1)" fill="#5f5f5f"/>
</svg>
