<svg xmlns="http://www.w3.org/2000/svg" width="25" height="25" viewBox="0 0 25 25"><defs><style>.a{fill:#fff;}</style></defs><g transform="translate(-3 -3)"><g transform="translate(3 3)"><path class="a" d="M23.533,14.111A10.266,10.266,0,0,1,25,14.236V7.542L14,3,3,7.542v6.819A14.335,14.335,0,0,0,14,28a13.962,13.962,0,0,0,2.347-.764,8.007,8.007,0,0,1-1.613-4.792A8.583,8.583,0,0,1,23.533,14.111Z" transform="translate(-3 -3)"/><path class="a" d="M17,13a4,4,0,1,0,4,4A4,4,0,0,0,17,13Zm0,1.38a1.12,1.12,0,1,1-1.12,1.12A1.125,1.125,0,0,1,17,14.38Zm0,5.37a2.725,2.725,0,0,1-2.24-1.17c.05-.72,1.51-1.08,2.24-1.08s2.19.36,2.24,1.08A2.725,2.725,0,0,1,17,19.75Z" transform="translate(4 4)"/></g></g></svg>