<svg xmlns="http://www.w3.org/2000/svg" width="12.1" height="10.507" viewBox="0 0 12.1 10.507"><defs><style>.a{fill:#053c6d;}</style></defs><path class="a" d="M8.095,9.095A2.547,2.547,0,1,0,5.547,6.547,2.547,2.547,0,0,0,8.095,9.095Zm0-3.821A1.274,1.274,0,1,1,6.821,6.547,1.277,1.277,0,0,1,8.095,5.274ZM4.274,12.915c.127-.4,1.637-1.07,3.159-1.235l1.3-1.274a5.948,5.948,0,0,0-.637-.038c-1.7,0-5.095.853-5.095,2.547v1.274H8.731L7.458,12.915Zm9.934-3.5-3.267,3.292L9.623,11.381l-.892.9,2.21,2.229,4.158-4.2Z" transform="translate(-3 -4)"/></svg>