<svg xmlns="http://www.w3.org/2000/svg" width="11.7" height="13" viewBox="0 0 11.7 13">
  <path id="Path_602" data-name="Path 602" d="M5.6,7.85H6.9v1.3H5.6ZM14.7,4.6v9.1A1.3,1.3,0,0,1,13.4,15H4.3A1.3,1.3,0,0,1,3,13.7l.006-9.1A1.294,1.294,0,0,1,4.3,3.3h.65V2h1.3V3.3h5.2V2h1.3V3.3h.65A1.3,1.3,0,0,1,14.7,4.6ZM4.3,5.9h9.1V4.6H4.3Zm9.1,7.8V7.2H4.3v6.5ZM10.8,9.15h1.3V7.85H10.8Zm-2.6,0H9.5V7.85H8.2ZM5.6,10.209H6.9v1.3H5.6Zm2.6,0H9.5v1.3H8.2Zm2.6,0h1.3v1.3H10.8Z" transform="translate(-3 -2)" fill="#5f5f5f"/>
</svg>
