<svg xmlns="http://www.w3.org/2000/svg" width="18.497" height="18.5" viewBox="0 0 18.497 18.5">
  <g id="Group_2105" data-name="Group 2105" transform="translate(146.25 600.379)">
    <path id="Path_1075" data-name="Path 1075" d="M-144.49-582.129a1.971,1.971,0,0,1-.887-.385,1.71,1.71,0,0,1-.621-1.374c0-.814,0-1.629,0-2.443q0-5.993,0-11.985a1.737,1.737,0,0,1,.679-1.47,1.652,1.652,0,0,1,1.029-.34q4.464,0,8.929,0a.617.617,0,0,1,.456.189c1.1,1.106,2.211,2.209,3.307,3.323a.68.68,0,0,1,.189.414c.019.732.009,1.464.008,2.2a.281.281,0,0,1-.013.056h-1.1v-1.679h-.206q-.974,0-1.947,0a1.135,1.135,0,0,1-1.222-1.23q0-.967,0-1.933V-599h-8.3c-.476,0-.68.206-.681.686q0,7.188,0,14.375c0,.481.2.688.679.688h3.813v1.125Z" transform="translate(0 0)" fill="#b4b4b4" stroke="#b4b4b4" stroke-width="0.5"/>
    <path id="Path_1076" data-name="Path 1076" d="M165.092-391.014a1.148,1.148,0,0,1-.613.817,1.508,1.508,0,0,1-.559.133c-.73.015-1.461.011-2.192,0a1.125,1.125,0,0,1-1.165-1.16q-.01-1.671,0-3.342a1.125,1.125,0,0,1,1.165-1.16c.719-.007,1.438,0,2.157,0a1.13,1.13,0,0,1,1.178.892.462.462,0,0,0,.029.063v.177h-3.385v3.4h2.241v-1.14h-1.112v-1.111c.432,0,.855-.009,1.277.005a.974.974,0,0,1,.367.115,1.188,1.188,0,0,1,.613.82Z" transform="translate(-293.095 -195.435)" fill="#b4b4b4" stroke="#b4b4b4" stroke-width="0.5"/>
    <path id="Path_1077" data-name="Path 1077" d="M49.569-392.812a4.175,4.175,0,0,1-.148,1.329,2.274,2.274,0,0,1-2.323,1.5,2.221,2.221,0,0,1-2.038-1.935,5.93,5.93,0,0,1,.039-2.007,2.242,2.242,0,0,1,2.319-1.711,2.245,2.245,0,0,1,2.1,1.929C49.562-393.414,49.555-393.111,49.569-392.812Zm-1.147,0c0-.189,0-.377,0-.566a1.137,1.137,0,0,0-1.135-1.137,1.132,1.132,0,0,0-1.126,1.127c-.011.383-.011.766,0,1.149a1.131,1.131,0,0,0,1.133,1.12,1.136,1.136,0,0,0,1.127-1.127C48.428-392.429,48.422-392.618,48.422-392.807Z" transform="translate(-182.608 -195.514)" fill="#b4b4b4" stroke="#b4b4b4" stroke-width="0.5"/>
    <path id="Path_1078" data-name="Path 1078" d="M-43.777-395.674h1.129v4.525h2.255v1.132c-.051,0-.107.007-.164.007h-2.565a.579.579,0,0,1-.655-.651q0-2.424,0-4.847Z" transform="translate(-97.73 -195.484)" fill="#b4b4b4" stroke="#b4b4b4" stroke-width="0.5"/>
  </g>
</svg>
