<svg xmlns="http://www.w3.org/2000/svg" width="25" height="20" viewBox="0 0 25 20"><defs><style>.a{fill:#5f5f5f;}</style></defs><path class="a" d="M27,11.5v-5A2.5,2.5,0,0,0,24.5,4H4.5A2.489,2.489,0,0,0,2.013,6.5v5A2.5,2.5,0,0,1,2,16.5v5A2.507,2.507,0,0,0,4.5,24h20A2.507,2.507,0,0,0,27,21.5v-5a2.5,2.5,0,0,1,0-5ZM24.5,9.675a4.991,4.991,0,0,0,0,8.65V21.5H4.5V18.325A5.017,5.017,0,0,0,7,14,4.99,4.99,0,0,0,4.513,9.675L4.5,6.5h20ZM13.25,17.75h2.5v2.5h-2.5Zm0-5h2.5v2.5h-2.5Zm0-5h2.5v2.5h-2.5Z" transform="translate(-2 -4)"/></svg>