<svg xmlns="http://www.w3.org/2000/svg" width="68.943" height="49.244" viewBox="0 0 68.943 49.244"><defs><style>.a{fill:#8c5f5f;}.b{fill:#785353;}.c{fill:#80e1ff;}.d{fill:#00c3ff;}.e{fill:#afb9d2;}</style></defs><g transform="translate(-288.533 -589.858)"><path class="a" d="M291.845,636.64V592.32a2.463,2.463,0,0,1,2.464-2.462h54.168a2.461,2.461,0,0,1,2.462,2.462v44.32" transform="translate(1.612)"/><rect class="b" width="59.093" height="14.773" transform="translate(293.458 621.866)"/><path class="c" d="M301.738,625.355h-4.924V614.274a1.231,1.231,0,0,1,1.231-1.231h2.462a1.232,1.232,0,0,1,1.231,1.231Z" transform="translate(4.031 11.285)"/><path class="d" d="M301.738,617.969h-4.924v-3.695a1.231,1.231,0,0,1,1.231-1.231h2.462a1.232,1.232,0,0,1,1.231,1.231Z" transform="translate(4.031 11.285)"/><path class="c" d="M308.364,625.355h-4.926V614.274a1.232,1.232,0,0,1,1.231-1.231h2.462a1.232,1.232,0,0,1,1.232,1.231Z" transform="translate(7.255 11.285)"/><path class="d" d="M308.364,617.969h-4.926v-3.695a1.232,1.232,0,0,1,1.231-1.231h2.462a1.232,1.232,0,0,1,1.232,1.231Z" transform="translate(7.255 11.285)"/><path class="c" d="M314.987,625.355h-4.924V614.274a1.232,1.232,0,0,1,1.231-1.231h2.462a1.232,1.232,0,0,1,1.231,1.231Z" transform="translate(10.479 11.285)"/><path class="d" d="M314.987,617.969h-4.924v-3.695a1.232,1.232,0,0,1,1.231-1.231h2.462a1.232,1.232,0,0,1,1.231,1.231Z" transform="translate(10.479 11.285)"/><path class="c" d="M321.613,625.355h-4.926V614.274a1.232,1.232,0,0,1,1.231-1.231h2.462a1.232,1.232,0,0,1,1.233,1.231Z" transform="translate(13.703 11.285)"/><path class="d" d="M321.613,617.969h-4.926v-3.695a1.232,1.232,0,0,1,1.231-1.231h2.462a1.232,1.232,0,0,1,1.233,1.231Z" transform="translate(13.703 11.285)"/><path class="c" d="M328.236,625.355h-4.924V614.274a1.232,1.232,0,0,1,1.231-1.231h2.462a1.232,1.232,0,0,1,1.231,1.231Z" transform="translate(16.928 11.285)"/><path class="d" d="M328.236,617.969h-4.924v-3.695a1.232,1.232,0,0,1,1.231-1.231h2.462a1.232,1.232,0,0,1,1.231,1.231Z" transform="translate(16.928 11.285)"/><path class="e" d="M355.014,624.592H291a2.462,2.462,0,1,1,0-4.924h64.019a2.462,2.462,0,1,1,0,4.924Z" transform="translate(0 14.51)"/><path class="d" d="M300.507,602.212h-2.462a1.231,1.231,0,0,1-1.231-1.231v-4.924a1.232,1.232,0,0,1,1.231-1.231h2.462a1.232,1.232,0,0,1,1.231,1.231v4.924A1.231,1.231,0,0,1,300.507,602.212Z" transform="translate(4.031 2.418)"/><path class="c" d="M300.507,601.406h-2.462a1.231,1.231,0,0,1-1.231-1.231v-2.462a1.232,1.232,0,0,1,1.231-1.231h2.462a1.232,1.232,0,0,1,1.231,1.231v2.462A1.231,1.231,0,0,1,300.507,601.406Z" transform="translate(4.031 3.224)"/><path class="d" d="M307.131,602.212h-2.462a1.231,1.231,0,0,1-1.231-1.231v-4.924a1.232,1.232,0,0,1,1.231-1.231h2.462a1.232,1.232,0,0,1,1.232,1.231v4.924A1.231,1.231,0,0,1,307.131,602.212Z" transform="translate(7.255 2.418)"/><path class="c" d="M307.131,601.406h-2.462a1.231,1.231,0,0,1-1.231-1.231v-2.462a1.232,1.232,0,0,1,1.231-1.231h2.462a1.232,1.232,0,0,1,1.232,1.231v2.462A1.231,1.231,0,0,1,307.131,601.406Z" transform="translate(7.255 3.224)"/><path class="d" d="M313.756,602.212h-2.462a1.231,1.231,0,0,1-1.231-1.231v-4.924a1.232,1.232,0,0,1,1.231-1.231h2.462a1.232,1.232,0,0,1,1.231,1.231v4.924A1.231,1.231,0,0,1,313.756,602.212Z" transform="translate(10.479 2.418)"/><path class="c" d="M313.756,601.406h-2.462a1.231,1.231,0,0,1-1.231-1.231v-2.462a1.232,1.232,0,0,1,1.231-1.231h2.462a1.232,1.232,0,0,1,1.231,1.231v2.462A1.231,1.231,0,0,1,313.756,601.406Z" transform="translate(10.479 3.224)"/><path class="d" d="M320.38,602.212h-2.462a1.231,1.231,0,0,1-1.231-1.231v-4.924a1.232,1.232,0,0,1,1.231-1.231h2.462a1.232,1.232,0,0,1,1.233,1.231v4.924A1.231,1.231,0,0,1,320.38,602.212Z" transform="translate(13.703 2.418)"/><path class="c" d="M320.38,601.406h-2.462a1.231,1.231,0,0,1-1.231-1.231v-2.462a1.232,1.232,0,0,1,1.231-1.231h2.462a1.232,1.232,0,0,1,1.233,1.231v2.462A1.231,1.231,0,0,1,320.38,601.406Z" transform="translate(13.703 3.224)"/><path class="d" d="M327.005,602.212h-2.462a1.231,1.231,0,0,1-1.231-1.231v-4.924a1.232,1.232,0,0,1,1.231-1.231h2.462a1.232,1.232,0,0,1,1.231,1.231v4.924A1.231,1.231,0,0,1,327.005,602.212Z" transform="translate(16.928 2.418)"/><path class="c" d="M327.005,601.406h-2.462a1.231,1.231,0,0,1-1.231-1.231v-2.462a1.232,1.232,0,0,1,1.231-1.231h2.462a1.232,1.232,0,0,1,1.231,1.231v2.462A1.231,1.231,0,0,1,327.005,601.406Z" transform="translate(16.928 3.224)"/><path class="d" d="M300.507,610.493h-2.462a1.232,1.232,0,0,1-1.231-1.231v-4.924a1.231,1.231,0,0,1,1.231-1.231h2.462a1.231,1.231,0,0,1,1.231,1.231v4.924A1.232,1.232,0,0,1,300.507,610.493Z" transform="translate(4.031 6.449)"/><path class="c" d="M300.507,609.687h-2.462a1.232,1.232,0,0,1-1.231-1.231v-2.462a1.231,1.231,0,0,1,1.231-1.231h2.462a1.231,1.231,0,0,1,1.231,1.231v2.462A1.232,1.232,0,0,1,300.507,609.687Z" transform="translate(4.031 7.255)"/><path class="d" d="M307.131,610.493h-2.462a1.232,1.232,0,0,1-1.231-1.231v-4.924a1.231,1.231,0,0,1,1.231-1.231h2.462a1.231,1.231,0,0,1,1.232,1.231v4.924A1.232,1.232,0,0,1,307.131,610.493Z" transform="translate(7.255 6.449)"/><path class="c" d="M307.131,609.687h-2.462a1.232,1.232,0,0,1-1.231-1.231v-2.462a1.231,1.231,0,0,1,1.231-1.231h2.462a1.231,1.231,0,0,1,1.232,1.231v2.462A1.232,1.232,0,0,1,307.131,609.687Z" transform="translate(7.255 7.255)"/><path class="d" d="M313.756,610.493h-2.462a1.232,1.232,0,0,1-1.231-1.231v-4.924a1.231,1.231,0,0,1,1.231-1.231h2.462a1.231,1.231,0,0,1,1.231,1.231v4.924A1.232,1.232,0,0,1,313.756,610.493Z" transform="translate(10.479 6.449)"/><path class="c" d="M313.756,609.687h-2.462a1.232,1.232,0,0,1-1.231-1.231v-2.462a1.231,1.231,0,0,1,1.231-1.231h2.462a1.231,1.231,0,0,1,1.231,1.231v2.462A1.232,1.232,0,0,1,313.756,609.687Z" transform="translate(10.479 7.255)"/><path class="d" d="M320.38,610.493h-2.462a1.232,1.232,0,0,1-1.231-1.231v-4.924a1.231,1.231,0,0,1,1.231-1.231h2.462a1.231,1.231,0,0,1,1.233,1.231v4.924A1.232,1.232,0,0,1,320.38,610.493Z" transform="translate(13.703 6.449)"/><path class="c" d="M320.38,609.687h-2.462a1.232,1.232,0,0,1-1.231-1.231v-2.462a1.231,1.231,0,0,1,1.231-1.231h2.462a1.231,1.231,0,0,1,1.233,1.231v2.462A1.232,1.232,0,0,1,320.38,609.687Z" transform="translate(13.703 7.255)"/><path class="d" d="M327.005,610.493h-2.462a1.232,1.232,0,0,1-1.231-1.231v-4.924a1.231,1.231,0,0,1,1.231-1.231h2.462a1.231,1.231,0,0,1,1.231,1.231v4.924A1.232,1.232,0,0,1,327.005,610.493Z" transform="translate(16.928 6.449)"/><path class="c" d="M327.005,609.687h-2.462a1.232,1.232,0,0,1-1.231-1.231v-2.462a1.231,1.231,0,0,1,1.231-1.231h2.462a1.231,1.231,0,0,1,1.231,1.231v2.462A1.232,1.232,0,0,1,327.005,609.687Z" transform="translate(16.928 7.255)"/></g></svg>