<svg xmlns="http://www.w3.org/2000/svg" xmlns:xlink="http://www.w3.org/1999/xlink" width="39" height="39" viewBox="0 0 39 39">
  <defs>
    <filter id="Ellipse_35" x="0" y="0" width="39" height="39" filterUnits="userSpaceOnUse">
      <feOffset input="SourceAlpha"/>
      <feGaussianBlur stdDeviation="1.5" result="blur"/>
      <feFlood flood-opacity="0.102"/>
      <feComposite operator="in" in2="blur"/>
      <feComposite in="SourceGraphic"/>
    </filter>
  </defs>
  <g id="Group_2040" data-name="Group 2040" transform="translate(4.5 4.5)">
    <g transform="matrix(1, 0, 0, 1, -4.5, -4.5)" filter="url(#Ellipse_35)">
      <g id="Ellipse_35-2" data-name="Ellipse 35" transform="translate(4.5 4.5)" fill="#fff" stroke="#eaeaea" stroke-width="0.5">
        <circle cx="15" cy="15" r="15" stroke="none"/>
        <circle cx="15" cy="15" r="14.75" fill="none"/>
      </g>
    </g>
    <path id="Path_798" data-name="Path 798" d="M11.692,0H1.3A1.3,1.3,0,0,0,.006,1.3L0,12.991l2.6-2.6h9.093a1.3,1.3,0,0,0,1.3-1.3V1.3A1.3,1.3,0,0,0,11.692,0ZM2.6,4.547h7.794v1.3H2.6Zm5.2,3.248H2.6V6.5h5.2Zm2.6-3.9H2.6V2.6h7.794Z" transform="translate(9 9)" fill="#26be95"/>
  </g>
</svg>
