<svg xmlns="http://www.w3.org/2000/svg" width="27.148" height="27.561" viewBox="0 0 27.148 27.561">
  <path id="Path_1067" data-name="Path 1067" d="M13.637,19.174l-2.908-2.908L9.282,17.713l4.341,4.341,8.191-8.191-1.447-1.447ZM22.916,1.81,29.2,7.059l-1.747,2.1L21.164,3.908Zm-14.571,0,1.75,2.1L3.8,9.154l-1.747-2.1ZM15.63,4.8A12.286,12.286,0,1,0,27.916,17.085,12.287,12.287,0,0,0,15.63,4.8Zm0,21.841a9.556,9.556,0,1,1,9.556-9.556A9.566,9.566,0,0,1,15.63,26.641Z" transform="translate(-2.057 -1.81)" fill="#b4b4b4"/>
</svg>
