<svg xmlns="http://www.w3.org/2000/svg" xmlns:xlink="http://www.w3.org/1999/xlink" width="24" height="24" viewBox="0 0 24 24">
  <defs>
    <filter id="Path_824" x="0" y="0" width="24" height="24" filterUnits="userSpaceOnUse">
      <feOffset dy="1" input="SourceAlpha"/>
      <feGaussianBlur stdDeviation="1" result="blur"/>
      <feFlood flood-opacity="0.102"/>
      <feComposite operator="in" in2="blur"/>
      <feComposite in="SourceGraphic"/>
    </filter>
  </defs>
  <g id="Group_1678" data-name="Group 1678" transform="translate(3 2.494)">
    <g id="Group_1158" data-name="Group 1158" transform="translate(0 -0.494)">
      <g transform="matrix(1, 0, 0, 1, -3, -2)" filter="url(#Path_824)">
        <path id="Path_824-2" data-name="Path 824" d="M9,0A9,9,0,1,1,0,9,9,9,0,0,1,9,0Z" transform="translate(3 2)" fill="#4267b2"/>
      </g>
      <path id="Path_903" data-name="Path 903" d="M19.926,17.713h1.686l.265-1.511H19.926v-.826c0-.628.233-1.184.9-1.184h1.07V12.872a10.281,10.281,0,0,0-1.336-.071,2.167,2.167,0,0,0-2.488,2.4V16.2H16.457v1.511h1.612v4.153a6.689,6.689,0,0,0,1.857.012Z" transform="translate(-10.089 -8.355)" fill="#fff"/>
    </g>
  </g>
</svg>
