<svg id="Group_297" data-name="Group 297" xmlns="http://www.w3.org/2000/svg" width="24" height="24" viewBox="0 0 24 24">
  <path id="Path_147" data-name="Path 147" d="M0,0H24V24H0ZM0,0H24V24H0ZM0,0H24V24H0Z" fill="none"/>
  <path id="Path_148" data-name="Path 148" d="M20,0H4V2H20ZM4,24H20V22H4ZM20,4H4A2.006,2.006,0,0,0,2,6V18a2.006,2.006,0,0,0,2,2H20a2.006,2.006,0,0,0,2-2V6A2.006,2.006,0,0,0,20,4ZM12,6.75A2.25,2.25,0,1,1,9.75,9,2.253,2.253,0,0,1,12,6.75ZM17,17H7V15.5c0-1.67,3.33-2.5,5-2.5s5,.83,5,2.5Z" fill="#fff"/>
</svg>
