<svg id="Group_234" data-name="Group 234" xmlns="http://www.w3.org/2000/svg" width="25" height="20" viewBox="0 0 25 20">
  <g id="Group_233" data-name="Group 233">
    <g id="Group_232" data-name="Group 232">
      <path id="Path_143" data-name="Path 143" d="M27,11.5v-5A2.5,2.5,0,0,0,24.5,4H4.5A2.489,2.489,0,0,0,2.013,6.5v5A2.5,2.5,0,0,1,2,16.5v5A2.507,2.507,0,0,0,4.5,24h20A2.507,2.507,0,0,0,27,21.5v-5a2.5,2.5,0,0,1,0-5ZM15.75,20.875h-2.5v-2.5h2.5Zm0-5.625h-2.5v-2.5h2.5Zm0-5.625h-2.5v-2.5h2.5Z" transform="translate(-2 -4)" fill="#fff"/>
    </g>
  </g>
</svg>
