<svg xmlns="http://www.w3.org/2000/svg" width="14.099" height="14.099" viewBox="0 0 14.099 14.099">
  <path id="Path_1004" data-name="Path 1004" d="M8.344,13.279h1.41v-1.41H8.344ZM9.049,2A7.049,7.049,0,1,0,16.1,9.049,7.052,7.052,0,0,0,9.049,2Zm0,12.689a5.639,5.639,0,1,1,5.639-5.639A5.647,5.647,0,0,1,9.049,14.689Zm0-9.869a2.819,2.819,0,0,0-2.82,2.82h1.41a1.41,1.41,0,1,1,2.82,0c0,1.41-2.115,1.234-2.115,3.525h1.41c0-1.586,2.115-1.762,2.115-3.525A2.819,2.819,0,0,0,9.049,4.82Z" transform="translate(-2 -2)" fill="#053c6d"/>
</svg>
