<svg xmlns="http://www.w3.org/2000/svg" xmlns:xlink="http://www.w3.org/1999/xlink" width="24" height="24" viewBox="0 0 24 24">
  <defs>
    <linearGradient id="linear-gradient" x1="0.5" x2="0.5" y2="1" gradientUnits="objectBoundingBox">
      <stop offset="0" stop-color="#405de6"/>
      <stop offset="0.113" stop-color="#5b51d8"/>
      <stop offset="0.217" stop-color="#833ab4"/>
      <stop offset="0.335" stop-color="#c13584"/>
      <stop offset="0.471" stop-color="#e1306c"/>
      <stop offset="0.599" stop-color="#fd1d1d"/>
      <stop offset="0.702" stop-color="#f56040"/>
      <stop offset="0.797" stop-color="#f77737"/>
      <stop offset="0.905" stop-color="#fcaf45"/>
      <stop offset="1" stop-color="#ffdc80"/>
    </linearGradient>
    <filter id="Path_824" x="0" y="0" width="24" height="24" filterUnits="userSpaceOnUse">
      <feOffset dy="1" input="SourceAlpha"/>
      <feGaussianBlur stdDeviation="1" result="blur"/>
      <feFlood flood-opacity="0.102"/>
      <feComposite operator="in" in2="blur"/>
      <feComposite in="SourceGraphic"/>
    </filter>
  </defs>
  <g id="Group_1678" data-name="Group 1678" transform="translate(3 2.493)">
    <g id="Group_1158" data-name="Group 1158" transform="translate(0 0)">
      <g transform="matrix(1, 0, 0, 1, -3, -2.49)" filter="url(#Path_824)">
        <path id="Path_824-2" data-name="Path 824" d="M9,0A9,9,0,1,1,0,9,9,9,0,0,1,9,0Z" transform="translate(3 2)" fill="url(#linear-gradient)"/>
      </g>
      <path id="Path_907" data-name="Path 907" d="M10.2,3.562A2.464,2.464,0,0,0,7.736,1.1H3.562A2.464,2.464,0,0,0,1.1,3.562V7.736A2.464,2.464,0,0,0,3.562,10.2H7.736A2.464,2.464,0,0,0,10.2,7.736Zm-.751,0V7.736A1.712,1.712,0,0,1,7.736,9.447H3.562A1.712,1.712,0,0,1,1.851,7.736V3.562A1.712,1.712,0,0,1,3.562,1.851H7.736A1.712,1.712,0,0,1,9.447,3.562ZM7.69,5.331A2.049,2.049,0,0,0,5.967,3.608a2,2,0,0,0-.3-.022A2.045,2.045,0,1,0,7.712,5.631,2,2,0,0,0,7.69,5.331Zm-.743.11a1.317,1.317,0,0,1,.014.19A1.294,1.294,0,1,1,5.667,4.337a1.317,1.317,0,0,1,.19.014A1.3,1.3,0,0,1,6.947,5.441Zm1-2.463a.376.376,0,1,1-.376.376A.376.376,0,0,1,7.945,2.978Z" transform="translate(3.361 2.867)" fill="#fff"/>
    </g>
  </g>
</svg>
