<svg xmlns="http://www.w3.org/2000/svg" xmlns:xlink="http://www.w3.org/1999/xlink" width="39" height="39" viewBox="0 0 39 39">
  <defs>
    <filter id="Path_824" x="0" y="0" width="39" height="39" filterUnits="userSpaceOnUse">
      <feOffset input="SourceAlpha"/>
      <feGaussianBlur stdDeviation="1.5" result="blur"/>
      <feFlood flood-opacity="0.102"/>
      <feComposite operator="in" in2="blur"/>
      <feComposite in="SourceGraphic"/>
    </filter>
    <linearGradient id="linear-gradient" x1="0.5" x2="0.5" y2="1" gradientUnits="objectBoundingBox">
      <stop offset="0" stop-color="#405de6"/>
      <stop offset="0.113" stop-color="#5b51d8"/>
      <stop offset="0.217" stop-color="#833ab4"/>
      <stop offset="0.335" stop-color="#c13584"/>
      <stop offset="0.471" stop-color="#e1306c"/>
      <stop offset="0.599" stop-color="#fd1d1d"/>
      <stop offset="0.702" stop-color="#f56040"/>
      <stop offset="0.797" stop-color="#f77737"/>
      <stop offset="0.905" stop-color="#fcaf45"/>
      <stop offset="1" stop-color="#ffdc80"/>
    </linearGradient>
  </defs>
  <g id="Group_2039" data-name="Group 2039" transform="translate(4.5 4.5)">
    <g id="Group_2033" data-name="Group 2033" transform="translate(0 0.494)">
      <g id="Group_1158" data-name="Group 1158" transform="translate(0 -0.494)">
        <g transform="matrix(1, 0, 0, 1, -4.5, -4.5)" filter="url(#Path_824)">
          <g id="Path_824-2" data-name="Path 824" transform="translate(4.5 4.5)" fill="#fff">
            <path d="M 15 29.75 C 11.06013011932373 29.75 7.356080055236816 28.21573066711426 4.57017993927002 25.42981910705566 C 1.784270048141479 22.6439208984375 0.25 18.93987083435059 0.25 15 C 0.25 11.06013011932373 1.784270048141479 7.356080055236816 4.57017993927002 4.57017993927002 C 7.356080055236816 1.784270048141479 11.06013011932373 0.25 15 0.25 C 18.93987083435059 0.25 22.6439208984375 1.784270048141479 25.42981910705566 4.57017993927002 C 28.21573066711426 7.356080055236816 29.75 11.06013011932373 29.75 15 C 29.75 18.93987083435059 28.21573066711426 22.6439208984375 25.42981910705566 25.42981910705566 C 22.6439208984375 28.21573066711426 18.93987083435059 29.75 15 29.75 Z" stroke="none"/>
            <path d="M 15 0.5 C 11.12690925598145 0.5 7.485639572143555 2.008260726928711 4.746950149536133 4.746950149536133 C 2.008260726928711 7.485639572143555 0.5 11.12690925598145 0.5 15 C 0.5 18.87308883666992 2.008260726928711 22.51436042785645 4.746950149536133 25.25304985046387 C 7.485639572143555 27.99173927307129 11.12690925598145 29.5 15 29.5 C 18.87308883666992 29.5 22.51436042785645 27.99173927307129 25.25304985046387 25.25304985046387 C 27.99173927307129 22.51436042785645 29.5 18.87308883666992 29.5 15 C 29.5 11.12690925598145 27.99173927307129 7.485639572143555 25.25304985046387 4.746950149536133 C 22.51436042785645 2.008260726928711 18.87308883666992 0.5 15 0.5 M 15 0 C 23.28426933288574 0 30 6.715730667114258 30 15 C 30 23.28426933288574 23.28426933288574 30 15 30 C 6.715730667114258 30 0 23.28426933288574 0 15 C 0 6.715730667114258 6.715730667114258 0 15 0 Z" stroke="none" fill="#eaeaea"/>
          </g>
        </g>
        <path id="Path_907" data-name="Path 907" d="M15.988,5.129A4.031,4.031,0,0,0,11.959,1.1H5.129A4.031,4.031,0,0,0,1.1,5.129v6.829a4.031,4.031,0,0,0,4.029,4.029h6.829a4.031,4.031,0,0,0,4.029-4.029Zm-1.229,0v6.829a2.8,2.8,0,0,1-2.8,2.8H5.129a2.8,2.8,0,0,1-2.8-2.8V5.129a2.8,2.8,0,0,1,2.8-2.8h6.829A2.8,2.8,0,0,1,14.759,5.129ZM11.884,8.024A3.353,3.353,0,0,0,9.064,5.2a3.28,3.28,0,0,0-.491-.036A3.346,3.346,0,1,0,11.92,8.515,3.28,3.28,0,0,0,11.884,8.024Zm-1.216.18a2.155,2.155,0,0,1,.023.311A2.117,2.117,0,1,1,8.573,6.4a2.155,2.155,0,0,1,.311.023A2.123,2.123,0,0,1,10.668,8.2ZM12.3,4.173a.615.615,0,1,1-.615.615A.615.615,0,0,1,12.3,4.173Z" transform="translate(6.473 6.473)" fill="url(#linear-gradient)"/>
      </g>
    </g>
  </g>
</svg>
