<svg xmlns="http://www.w3.org/2000/svg" width="25.066" height="23.403" viewBox="0 0 25.066 23.403">
  <g id="Group_320" data-name="Group 320" transform="translate(562.001 -225.624)">
    <g id="Group_320-2" data-name="Group 320" transform="translate(-562.001 225.624)">
      <path id="Path_223" data-name="Path 223" d="M-537.755,244.119a8.476,8.476,0,0,0,.82-3.662,8.6,8.6,0,0,0-8.193-8.557,8.572,8.572,0,0,0-8.256-6.277A8.6,8.6,0,0,0-562,234.191a8.475,8.475,0,0,0,.82,3.662l-.805,4.027a.735.735,0,0,0,.863.864l4.077-.806a8.447,8.447,0,0,0,3.24.809,8.582,8.582,0,0,0,11.918,5.457c4.465.883,4.117.82,4.22.82a.735.735,0,0,0,.72-.878Zm-18.856-3.6a.736.736,0,0,0-.477-.067l-3.243.641.639-3.194a.734.734,0,0,0-.066-.478,7.025,7.025,0,0,1-.774-3.227,7.131,7.131,0,0,1,7.148-7.1,7.123,7.123,0,0,1,6.74,4.867,8.578,8.578,0,0,0-7.437,9.3,7,7,0,0,1-2.53-.74Zm17.367,3.647.639,3.194-3.243-.641a.733.733,0,0,0-.477.067,7.024,7.024,0,0,1-3.227.774,7.107,7.107,0,0,1-7.1-7.1,7.107,7.107,0,0,1,7.1-7.1,7.131,7.131,0,0,1,7.148,7.1,7.022,7.022,0,0,1-.774,3.227.734.734,0,0,0-.066.478Zm0,0" transform="translate(562.001 -225.624)" fill="#053c6d"/>
    </g>
  </g>
</svg>
