<svg id="Group_2035" data-name="Group 2035" xmlns="http://www.w3.org/2000/svg" width="13.5" height="18" viewBox="0 0 13.5 18">
  <path id="Path_101" data-name="Path 101" d="M827.813,503.25H817.688A1.69,1.69,0,0,1,816,501.563v-7.875A1.69,1.69,0,0,1,817.688,492h10.125a1.69,1.69,0,0,1,1.688,1.688v7.875a1.69,1.69,0,0,1-1.687,1.687Zm-10.125-10.125a.563.563,0,0,0-.563.563v7.875a.563.563,0,0,0,.563.563h10.125a.563.563,0,0,0,.562-.562v-7.875a.563.563,0,0,0-.562-.562Zm0,0" transform="translate(-816 -485.25)" fill="#5f5f5f"/>
  <path id="Path_102" data-name="Path 102" d="M872.438,355.875a.563.563,0,0,1-.562-.562V352.5a3.375,3.375,0,1,0-6.75,0v2.813a.563.563,0,0,1-1.125,0V352.5a4.5,4.5,0,0,1,9,0v2.813a.563.563,0,0,1-.562.562Zm0,0" transform="translate(-861.75 -348)" fill="#5f5f5f"/>
  <path id="Path_103" data-name="Path 103" d="M929.5,559a1.5,1.5,0,1,1,1.5-1.5,1.5,1.5,0,0,1-1.5,1.5Zm0-1.875a.375.375,0,1,0,.375.375.376.376,0,0,0-.375-.375Zm0,0" transform="translate(-922.75 -546.25)" fill="#5f5f5f"/>
  <path id="Path_104" data-name="Path 104" d="M948.563,603.188a.563.563,0,0,1-.562-.562v-2.062a.562.562,0,1,1,1.125,0v2.063a.562.562,0,0,1-.562.563Zm0,0" transform="translate(-941.813 -588.187)" fill="#5f5f5f"/>
</svg>
