<svg xmlns="http://www.w3.org/2000/svg" width="60.53" height="60.53" viewBox="0 0 60.53 60.53">
  <g id="Group_1531" data-name="Group 1531" transform="translate(-333.062 -133.062)">
    <circle id="Ellipse_1" data-name="Ellipse 1" cx="30.265" cy="30.265" r="30.265" transform="translate(333.062 133.062)" fill="#1cb7eb"/>
    <g id="Icons" transform="translate(339.601 140.016)">
      <g id="Group_1533" data-name="Group 1533">
        <path id="Path_905" data-name="Path 905" d="M24,21.868l13.186-9.081.686-.447a1.421,1.421,0,0,0-.86-.294H10.989a1.413,1.413,0,0,0-.837.283l.66.459Zm-.2-6.992H17.02a.35.35,0,1,1,0-.7H23.8a.35.35,0,1,1,0,.7Zm3.284,0h-1.4a.35.35,0,1,1,0-.7h1.4a.35.35,0,1,1,0,.7Z" fill="#fff"/>
        <path id="Path_906" data-name="Path 906" d="M38.309,12.853l-.582.411L24.2,22.581a.356.356,0,0,1-.2.062.352.352,0,0,1-.2-.062L10.272,13.266l-.577-.421a1.777,1.777,0,0,0-.234.885l0,21.874a.352.352,0,0,0,.223.327.37.37,0,0,0,.127.023.351.351,0,0,0,.257-.111l3.062-3.307H37.011a1.608,1.608,0,0,0,1.528-1.674V13.73A1.8,1.8,0,0,0,38.309,12.853Z" fill="#fff"/>
      </g>
    </g>
  </g>
</svg>
