<svg xmlns="http://www.w3.org/2000/svg" width="11.568" height="15.424" viewBox="0 0 11.568 15.424"><defs><style>.a{fill:#5f5f5f;}</style></defs><g transform="translate(0 0)"><path class="a" d="M826.122,501.64h-8.676A1.448,1.448,0,0,1,816,500.194v-6.748A1.448,1.448,0,0,1,817.446,492h8.676a1.448,1.448,0,0,1,1.446,1.446v6.748a1.448,1.448,0,0,1-1.446,1.446Zm-8.676-8.676a.483.483,0,0,0-.482.482v6.748a.483.483,0,0,0,.482.482h8.676a.483.483,0,0,0,.482-.482v-6.748a.483.483,0,0,0-.482-.482Zm0,0" transform="translate(-816 -486.216)"/><path class="a" d="M871.23,354.748a.482.482,0,0,1-.482-.482v-2.41a2.892,2.892,0,1,0-5.784,0v2.41a.482.482,0,0,1-.964,0v-2.41a3.856,3.856,0,1,1,7.712,0v2.41a.482.482,0,0,1-.482.482Zm0,0" transform="translate(-862.072 -348)"/><path class="a" d="M929.285,558.571a1.285,1.285,0,1,1,1.285-1.285,1.287,1.287,0,0,1-1.285,1.285Zm0-1.607a.321.321,0,1,0,.321.321.322.322,0,0,0-.321-.321Zm0,0" transform="translate(-923.501 -547.645)"/><path class="a" d="M948.482,602.731a.482.482,0,0,1-.482-.482v-1.767a.482.482,0,1,1,.964,0v1.767a.482.482,0,0,1-.482.482Zm0,0" transform="translate(-942.698 -589.878)"/></g></svg>