<svg xmlns="http://www.w3.org/2000/svg" width="19.048" height="25" viewBox="0 0 19.048 25">
  <g id="Group_1569" data-name="Group 1569" transform="translate(1270.472 144.304)">
    <g id="Group_1556" data-name="Group 1556" transform="translate(-1270.472 -144.304)">
      <path id="Path_924" data-name="Path 924" d="M-1262.444,163.276l-1.449-.1a24.653,24.653,0,0,1-5.148-.789c-.307-.088-.608-.2-.909-.314a.665.665,0,0,1-.409-.523,4.531,4.531,0,0,1-.113-.946,20.36,20.36,0,0,1,.463-4.436,8.907,8.907,0,0,1,1.11-2.783,3.149,3.149,0,0,1,1.56-1.135c.8-.336,1.6-.691,2.4-1.042a.819.819,0,0,0,.255-.158c.206-.208.384-.168.588.014a.367.367,0,0,1,.153.319q-.031,1.353-.044,2.706a1.234,1.234,0,0,0,.064.4q1.265,3.671,2.538,7.339c.016.046.032.092.049.138a.414.414,0,0,0,.383.327.41.41,0,0,0,.4-.33q.3-.861.6-1.724.992-2.864,1.98-5.729a1.325,1.325,0,0,0,.07-.428c-.008-.9-.016-1.8-.047-2.706-.01-.3.2-.339.354-.444.062-.043.209,0,.291.056a11.364,11.364,0,0,0,2.607,1.2,3.489,3.489,0,0,1,2.194,2.081,13.2,13.2,0,0,1,.973,4.12c.066.856.077,1.718.1,2.578a2.213,2.213,0,0,1-.078.507.82.82,0,0,1-.557.646,16.829,16.829,0,0,1-4.229.894c-.989.1-1.982.145-2.974.216a1.337,1.337,0,0,0-.176.036Z" transform="translate(1270.472 -138.276)" fill="#b4b4b4"/>
      <path id="Path_925" data-name="Path 925" d="M-1139.744-139.012c-.107.543-.212,1.086-.325,1.628a.5.5,0,0,0,.058.354,1.673,1.673,0,0,1,.183.74,3.133,3.133,0,0,1-.441,1.681.647.647,0,0,0-.061.208,6.676,6.676,0,0,1-1.818,3.392,3.107,3.107,0,0,1-4.729.091,6.132,6.132,0,0,1-1.917-3.507.518.518,0,0,0-.054-.185,3.515,3.515,0,0,1-.458-1.946.885.885,0,0,1,.147-.476.4.4,0,0,0,.063-.358,5.237,5.237,0,0,1-.128-2.335,4.224,4.224,0,0,1,4.553-3.542,7.2,7.2,0,0,1,3.569,1.489,3.388,3.388,0,0,1,1.3,2.754Z" transform="translate(1154.088 143.304)" fill="#b4b4b4"/>
      <path id="Path_926" data-name="Path 926" d="M-1062.588,184.19l-1.1-1.691a4.18,4.18,0,0,0,2.555.029l-1.079,1.655c.293.323.575.62.839.933a.446.446,0,0,1,.1.313q-.486,3.055-1,6.107a.742.742,0,0,1-.124.218c-.049-.074-.13-.142-.144-.221-.338-2.026-.668-4.054-1.006-6.081a.37.37,0,0,1,.123-.363C-1063.137,184.8-1062.874,184.5-1062.588,184.19Z" transform="translate(1071.935 -168.485)" fill="#b4b4b4"/>
    </g>
  </g>
</svg>
