<svg xmlns="http://www.w3.org/2000/svg" width="60.749" height="60.749" viewBox="0 0 60.749 60.749"><defs><style>.a{fill:#ff507d;}.b{fill:#ffdc64;}.c{fill:#b4e66e;}.d{fill:#00c3ff;}.e{fill:#00aaf0;}.f{fill:#d23c69;}.g{fill:#ffc850;}.h{fill:#a0d755;}</style></defs><g transform="translate(-113 -229.89)"><g transform="translate(-347.258 194.846)"><path class="a" d="M490.633,36.023v9.8a1.959,1.959,0,0,0,1.96,1.96h1.954a2.855,2.855,0,0,0,2.219-.975,5.391,5.391,0,1,1,.038,6.9,2.9,2.9,0,0,0-2.219-1.021h-1.993a1.958,1.958,0,0,0-1.958,1.958V65.418H479.854a1.959,1.959,0,0,1-1.959-1.958V61.467a2.9,2.9,0,0,1,1.021-2.219,5.389,5.389,0,1,0-6.895.038A2.855,2.855,0,0,1,473,61.5v1.954a1.959,1.959,0,0,1-1.96,1.96h-9.8a.98.98,0,0,1-.98-.979V38.963a3.919,3.919,0,0,1,3.919-3.919h25.476A.98.98,0,0,1,490.633,36.023Z"/><path class="b" d="M534.527,65.418h-9.8a1.959,1.959,0,0,0-1.959,1.96v1.954a2.854,2.854,0,0,0,.975,2.219,5.391,5.391,0,1,1-6.9.038,2.9,2.9,0,0,0,1.021-2.219V67.376a1.958,1.958,0,0,0-1.958-1.958H505.133V54.639a1.958,1.958,0,0,1,1.958-1.958h1.993A2.9,2.9,0,0,1,511.3,53.7a5.389,5.389,0,1,0-.038-6.9,2.856,2.856,0,0,1-2.219.975h-1.954a1.96,1.96,0,0,1-1.96-1.96v-9.8a.981.981,0,0,1,.98-.979h25.476a3.919,3.919,0,0,1,3.919,3.919V64.439A.98.98,0,0,1,534.527,65.418Z" transform="translate(-14.5)"/><path class="c" d="M497.649,109.313v-9.8a1.96,1.96,0,0,0-1.96-1.96h-1.955a2.856,2.856,0,0,0-2.219.975,5.391,5.391,0,1,1-.038-6.895,2.9,2.9,0,0,0,2.22,1.021h1.993a1.959,1.959,0,0,0,1.958-1.959V79.918h10.78a1.958,1.958,0,0,1,1.958,1.958v1.993a2.9,2.9,0,0,1-1.021,2.219,5.389,5.389,0,1,0,6.9-.038,2.856,2.856,0,0,1-.975-2.219V81.878a1.959,1.959,0,0,1,1.96-1.96h9.8a.98.98,0,0,1,.979.979v25.476a3.919,3.919,0,0,1-3.919,3.92H498.628A.98.98,0,0,1,497.649,109.313Z" transform="translate(-7.016 -14.5)"/><path class="d" d="M461.238,72.434h9.8a1.959,1.959,0,0,0,1.96-1.96V68.521a2.855,2.855,0,0,0-.975-2.219,5.391,5.391,0,1,1,6.895-.038,2.9,2.9,0,0,0-1.021,2.219v1.993a1.958,1.958,0,0,0,1.958,1.958h10.78V83.214a1.959,1.959,0,0,1-1.959,1.958h-1.993a2.9,2.9,0,0,1-2.219-1.021,5.389,5.389,0,1,0,.038,6.9,2.854,2.854,0,0,1,2.219-.975h1.954a1.959,1.959,0,0,1,1.96,1.96v9.8a.98.98,0,0,1-.98.98H464.177a3.919,3.919,0,0,1-3.919-3.92V73.414A.98.98,0,0,1,461.238,72.434Z" transform="translate(0 -7.016)"/><g transform="translate(460.258 49.748)"><path class="e" d="M463.2,106.373V80.9a.98.98,0,0,1,.979-.98h-2.939a.98.98,0,0,0-.98.98v25.475a3.919,3.919,0,0,0,3.919,3.92h2.94A3.919,3.919,0,0,1,463.2,106.373Z" transform="translate(-460.258 -64.248)"/><path class="e" d="M476.7,66.305a2.855,2.855,0,0,1,.975,2.219v1.954a1.959,1.959,0,0,1-1.96,1.96h1.96a1.96,1.96,0,0,0,1.96-1.96V68.524a2.855,2.855,0,0,0-.975-2.219,5.379,5.379,0,0,1,2.454-9.449,5.384,5.384,0,0,0-4.414,9.449Z" transform="translate(-464.936 -56.768)"/></g><path class="f" d="M463.2,64.439V38.963a3.919,3.919,0,0,1,3.919-3.919h-2.94a3.919,3.919,0,0,0-3.919,3.919V64.439a.98.98,0,0,0,.98.979h2.939A.98.98,0,0,1,463.2,64.439Z"/><g transform="translate(490.633 35.044)"><path class="g" d="M521.835,60.2l-.021,0a5.5,5.5,0,0,0,1.981,0,5.387,5.387,0,1,0-2.014-10.584,5.386,5.386,0,0,1,.055,10.584Z" transform="translate(-510.512 -39.721)"/><path class="g" d="M507.093,47.781h1.957a1.96,1.96,0,0,1-1.957-1.96v-9.8a.98.98,0,0,1,.979-.979h-1.96a.98.98,0,0,0-.979.979v9.8A1.959,1.959,0,0,0,507.093,47.781Z" transform="translate(-505.133 -35.044)"/><path class="g" d="M509.051,61.1h-1.96a1.958,1.958,0,0,0-1.958,1.958V73.837h1.96V63.058A1.958,1.958,0,0,1,509.051,61.1Z" transform="translate(-505.133 -43.463)"/><path class="g" d="M525.795,95.474a5.387,5.387,0,0,1-2.308-9.386,2.9,2.9,0,0,0,1.021-2.219V81.876a1.958,1.958,0,0,0-1.958-1.958h-1.96a1.958,1.958,0,0,1,1.958,1.958V83.87a2.9,2.9,0,0,1-1.021,2.219,5.387,5.387,0,0,0,2.308,9.386,5.529,5.529,0,0,0,2.133.026C525.91,95.49,525.853,95.486,525.795,95.474Z" transform="translate(-509.81 -49.544)"/></g><g transform="translate(474.955 65.418)"><path class="h" d="M506.157,90.7V79.918H504.2V90.7a1.959,1.959,0,0,1-1.959,1.959h1.96A1.959,1.959,0,0,0,506.157,90.7Z" transform="translate(-488.52 -79.918)"/><path class="h" d="M484.053,98.624a5.373,5.373,0,0,1,4.232-4.131l.021,0a5.5,5.5,0,0,0-1.981,0,5.387,5.387,0,1,0,2.014,10.584A5.392,5.392,0,0,1,484.053,98.624Z" transform="translate(-481.971 -84.598)"/><path class="h" d="M506.158,117.732v-9.8a1.96,1.96,0,0,0-1.96-1.96h-1.957a1.959,1.959,0,0,1,1.957,1.96v9.8a.98.98,0,0,0,.979.98h1.96A.98.98,0,0,1,506.158,117.732Z" transform="translate(-488.521 -88.337)"/></g></g></g></svg>