<svg xmlns="http://www.w3.org/2000/svg" width="25" height="25.701" viewBox="0 0 25 25.701">
  <path id="Path_802" data-name="Path 802" d="M24.322,16.11a10.014,10.014,0,0,0,.09-1.259,10.014,10.014,0,0,0-.09-1.259l2.711-2.12a.648.648,0,0,0,.154-.822L24.617,6.2a.642.642,0,0,0-.565-.321.6.6,0,0,0-.218.039L20.633,7.2a9.389,9.389,0,0,0-2.172-1.259L17.973,2.54a.627.627,0,0,0-.63-.54H12.2a.627.627,0,0,0-.63.54l-.488,3.405A9.873,9.873,0,0,0,8.914,7.2l-3.2-1.285a.728.728,0,0,0-.231-.039A.636.636,0,0,0,4.93,6.2L2.36,10.648a.634.634,0,0,0,.154.822l2.711,2.12a10.191,10.191,0,0,0-.09,1.259,10.192,10.192,0,0,0,.09,1.259L2.514,18.23a.648.648,0,0,0-.154.822L4.93,23.5a.642.642,0,0,0,.565.321.6.6,0,0,0,.218-.039l3.2-1.285a9.389,9.389,0,0,0,2.172,1.259l.488,3.405a.627.627,0,0,0,.63.54h5.14a.627.627,0,0,0,.63-.54l.488-3.405A9.873,9.873,0,0,0,20.633,22.5l3.2,1.285a.728.728,0,0,0,.231.039.636.636,0,0,0,.553-.321l2.57-4.446a.648.648,0,0,0-.154-.822Zm-2.544-2.2a6.866,6.866,0,0,1,.064.938c0,.27-.026.553-.064.938l-.18,1.452,1.144.9,1.388,1.079-.9,1.555L21.6,20.119l-1.336-.54-1.157.874a7.526,7.526,0,0,1-1.606.938l-1.362.553L15.93,23.4l-.257,1.735h-1.8L13.63,23.4l-.206-1.452-1.362-.553a7.291,7.291,0,0,1-1.581-.912l-1.169-.9-1.362.553-1.632.655-.9-1.555,1.388-1.079,1.144-.9L7.77,15.8c-.039-.4-.064-.694-.064-.951s.026-.553.064-.938l.18-1.452-1.144-.9L5.418,10.481l.9-1.555,1.632.655,1.336.54,1.157-.874a7.526,7.526,0,0,1,1.606-.938l1.362-.553L13.617,6.3l.257-1.735H15.66L15.9,6.3l.206,1.452,1.362.553a7.292,7.292,0,0,1,1.581.912l1.169.9,1.362-.553,1.632-.655.9,1.555-1.375,1.092-1.144.9Zm-7-4.2a5.14,5.14,0,1,0,5.14,5.14A5.139,5.139,0,0,0,14.774,9.71Zm0,7.71a2.57,2.57,0,1,1,2.57-2.57A2.578,2.578,0,0,1,14.774,17.421Z" transform="translate(-2.271 -2)" fill="#b4b4b4"/>
</svg>
