<svg xmlns="http://www.w3.org/2000/svg" width="10.843" height="12" viewBox="0 0 10.843 12">
  <path id="Path_959" data-name="Path 959" d="M12.036,10.482a1.754,1.754,0,0,0-1.181.464l-4.3-2.5a1.667,1.667,0,0,0,0-.843l4.247-2.476a1.8,1.8,0,1,0-.578-1.319,1.972,1.972,0,0,0,.054.422L6.036,6.7a1.807,1.807,0,1,0,0,2.639l4.289,2.506a1.7,1.7,0,0,0-.048.392,1.759,1.759,0,1,0,1.759-1.759Zm0-7.277a.6.6,0,1,1-.6.6A.6.6,0,0,1,12.036,3.2ZM4.807,8.627a.6.6,0,1,1,.6-.6A.6.6,0,0,1,4.807,8.627Zm7.229,4.229a.6.6,0,1,1,.6-.6A.6.6,0,0,1,12.036,12.855Z" transform="translate(-3 -2)" fill="#5f5f5f"/>
</svg>
