<svg id="Group_2094" data-name="Group 2094" xmlns="http://www.w3.org/2000/svg" width="18" height="18" viewBox="0 0 18 18">
  <path id="Path_189" data-name="Path 189" d="M118.125,230.329a1.49,1.49,0,0,0-1.061-.44h-6.129a1.49,1.49,0,0,0-1.061.44l-4.435,4.435a1.488,1.488,0,0,0-.44,1.061c0,1.126.008,5,0,6.128a1.486,1.486,0,0,0,.44,1.065l4.432,4.432a1.49,1.49,0,0,0,1.061.439h6.129a1.49,1.49,0,0,0,1.061-.439l4.436-4.436a1.489,1.489,0,0,0,.439-1.061v-6.128a1.491,1.491,0,0,0-.439-1.061Zm3.375,11.625-4.436,4.436h-6.129l-4.432-4.432c0-1.129,0-5.008,0-6.133l4.435-4.435h6.129l4.436,4.436Zm0,0" transform="translate(-105 -229.89)" fill="#053c6d"/>
  <path id="Path_190" data-name="Path 190" d="M268.3,293.89a1.453,1.453,0,0,0-1.444,1.622l.676,6.181a.772.772,0,0,0,1.534,0l.675-6.169a1.453,1.453,0,0,0-1.442-1.634Zm0,0" transform="translate(-259.304 -290.964)" fill="#053c6d"/>
  <path id="Path_191" data-name="Path 191" d="M274.15,501.89a1.158,1.158,0,1,0,1.158,1.158,1.159,1.159,0,0,0-1.158-1.158Zm0,0" transform="translate(-265.15 -489.193)" fill="#053c6d"/>
</svg>
