<svg xmlns="http://www.w3.org/2000/svg" width="80.426" height="60" viewBox="0 0 80.426 60"><defs><style>.a{fill:#785550;}.b{fill:#694b4b;}.c{fill:#e6af78;}.d{fill:#d29b6e;}.e{fill:#d5dced;}.f{fill:#5a4146;}.g{fill:#f0c087;}.h{fill:#c7cfe2;}.i{fill:#afb9d2;}.j{fill:#959cb5;}.k{fill:#00c3ff;}.l{fill:#00aaf0;}</style></defs><g transform="translate(-151.745 -34.307)"><ellipse class="a" cx="5.106" cy="4.468" rx="5.106" ry="4.468" transform="translate(215.575 52.18)"/><path class="b" d="M251.677,65.684a4.512,4.512,0,0,1,3.191-4.137,5.705,5.705,0,0,0-1.915-.331c-2.82,0-5.106,2-5.106,4.468s2.286,4.468,5.106,4.468a5.705,5.705,0,0,0,1.915-.331A4.513,4.513,0,0,1,251.677,65.684Z" transform="translate(-32.272 -9.036)"/><path class="c" d="M259.1,102.07,254.967,100a2.553,2.553,0,0,1-1.411-2.283v-3.83H245.9v3.83A2.552,2.552,0,0,1,244.485,100l-4.131,2.066a3.83,3.83,0,0,0-2.117,3.425v7.545a1.276,1.276,0,0,0,1.277,1.277h20.426a1.277,1.277,0,0,0,1.277-1.277V105.5A3.829,3.829,0,0,0,259.1,102.07Z" transform="translate(-29.045 -20.009)"/><path class="d" d="M253.564,99a10.081,10.081,0,0,0,3.9-.788,2.5,2.5,0,0,1-.068-.488v-3.83h-7.659v3.83a2.52,2.52,0,0,1-.069.491A10.137,10.137,0,0,0,253.564,99Z" transform="translate(-32.883 -20.009)"/><path class="e" d="M259.1,105.461l-2.943-1.471a7.649,7.649,0,0,1-12.859,0l-2.943,1.472a3.83,3.83,0,0,0-2.117,3.425v7.545a1.277,1.277,0,0,0,1.277,1.277h20.426a1.277,1.277,0,0,0,1.277-1.277v-7.545A3.829,3.829,0,0,0,259.1,105.461Z" transform="translate(-29.045 -23.4)"/><circle class="f" cx="8.936" cy="8.936" r="8.936" transform="translate(211.745 56.009)"/><path class="b" d="M262.341,74.679a8.956,8.956,0,0,0-6.869-7.479,9.223,9.223,0,0,0-1.927-.219c-4.281-.027-5.711,5.885-1.862,7.76a3.3,3.3,0,0,0,.338.146l4.447,8.051s1.185.081,2.38.118A8.916,8.916,0,0,0,262.341,74.679Z" transform="translate(-32.808 -10.973)"/><path class="g" d="M251.689,91.386h0a7.66,7.66,0,0,1-7.6-6.668,1.287,1.287,0,0,1,.682-1.327,10.658,10.658,0,0,0,2.26-1.526,7.378,7.378,0,0,0,1.747-2.3,1.263,1.263,0,0,1,1.439-.7,22,22,0,0,1,8.665,4.439,1.235,1.235,0,0,1,.439,1.026A7.66,7.66,0,0,1,251.689,91.386Z" transform="translate(-31.008 -14.951)"/><path class="c" d="M258.886,83.306a21.993,21.993,0,0,0-8.665-4.439,1.263,1.263,0,0,0-1.439.7,7.314,7.314,0,0,1-1.167,1.7v0a6.782,6.782,0,0,1-.579.591,10.658,10.658,0,0,1-2.26,1.526,1.287,1.287,0,0,0-.682,1.327,7.65,7.65,0,0,0,6.435,6.56,5.555,5.555,0,0,1-2.669-5v-1.82c.29-.215.582-.428.875-.689a10.185,10.185,0,0,0,1.826-2.154,19.269,19.269,0,0,1,6.653,3.62c.242.213.843.766,1.545,1.425a7.609,7.609,0,0,0,.567-2.328A1.235,1.235,0,0,0,258.886,83.306Z" transform="translate(-31.008 -14.951)"/><path class="h" d="M269.473,107.9a3.822,3.822,0,0,1,.778,2.3v7.544a1.277,1.277,0,0,1-1.277,1.277h-3.83v-6.433a2.551,2.551,0,0,1,.958-1.993Z" transform="translate(-38.081 -24.713)"/><path class="f" d="M157.512,72.734v.9a10.2,10.2,0,0,0,.524,3.229l2.029,6.087h3.83V68.9h-2.553A3.829,3.829,0,0,0,157.512,72.734Z" transform="translate(-1.937 -11.618)"/><path class="b" d="M176.282,74.74l-2.16,7.56-10.213-8.936a2.553,2.553,0,0,1-2.553-2.553h0a3.83,3.83,0,0,1,3.83-3.83h8.936a2.553,2.553,0,0,1,2.553,2.553v2.4A10.2,10.2,0,0,1,176.282,74.74Z" transform="translate(-3.228 -10.973)"/><rect class="c" width="7.66" height="5.65" transform="translate(160.681 75.158)"/><path class="d" d="M165.2,98.157a10.129,10.129,0,0,0,7.659,0V95.812H165.2Z" transform="translate(-4.518 -20.654)"/><path class="e" d="M174.5,102.234l-6.159-1.759-3.829,2.542-3.83-2.542-6.158,1.759a3.831,3.831,0,0,0-2.778,3.683v9.333a1.277,1.277,0,0,0,1.277,1.277H176a1.276,1.276,0,0,0,1.277-1.277v-9.333A3.831,3.831,0,0,0,174.5,102.234Z" transform="translate(0 -22.22)"/><path class="i" d="M171.6,117.818h-2.553l.638-13.5h1.277Z" transform="translate(-5.809 -23.511)"/><path class="g" d="M167.093,90.642h0a7.659,7.659,0,0,1-7.659-7.659v-1.5a2.553,2.553,0,0,1,.748-1.805l2.315-2.315a2.522,2.522,0,0,1,1.853-.75c4.081.128,7.693,1,9.668,2.931a2.522,2.522,0,0,1,.735,1.808v1.627A7.659,7.659,0,0,1,167.093,90.642Z" transform="translate(-2.582 -14.208)"/><path class="c" d="M163.264,81.8a2.548,2.548,0,0,1,2.706-2.549c2.578.164,6.4.6,8.748,1.724a2.473,2.473,0,0,0-.7-1.43c-1.975-1.929-5.587-2.8-9.668-2.932h0a2.523,2.523,0,0,0-1.853.751l-2.315,2.315a2.554,2.554,0,0,0-.748,1.806v1.5a7.656,7.656,0,0,0,5.537,7.355,7.591,7.591,0,0,1-1.708-4.8Z" transform="translate(-2.582 -14.208)"/><path class="h" d="M156.852,111.365a3.83,3.83,0,0,0-1.122-2.708l-3.286-3.286a3.815,3.815,0,0,0-.7,2.19v9.333a1.277,1.277,0,0,0,1.277,1.277h3.83Z" transform="translate(0 -23.864)"/><path class="j" d="M170.959,106.872h-1.277a.638.638,0,0,1-.638-.638v-1.915H171.6v1.915A.638.638,0,0,1,170.959,106.872Z" transform="translate(-5.809 -23.511)"/><g transform="translate(159.27 77.241)"><path class="h" d="M168.316,102.5l-2.164,1.652a.765.765,0,0,1-1.136-.241l-1.941-3.544.781-1.192a.511.511,0,0,1,.774-.094Z" transform="translate(-163.074 -98.949)"/><path class="h" d="M170.966,102.5l2.164,1.652a.765.765,0,0,0,1.136-.241l1.941-3.544-.782-1.192a.51.51,0,0,0-.774-.094Z" transform="translate(-165.724 -98.949)"/></g><path class="f" d="M203.641,78.988c8.351,0,15.85-3.415,18.3-4.659a1.274,1.274,0,0,0,.685-1.35c-.4-2.367-1.463-9.458-2.394-22.076-.758-10.264-7.43-16.6-16.6-16.6s-15.838,6.332-16.6,16.6c-.931,12.618-2,19.708-2.394,22.076a1.274,1.274,0,0,0,.685,1.35C187.79,75.573,195.288,78.988,203.641,78.988Z" transform="translate(-11.044)"/><path class="b" d="M227.587,74.328a1.274,1.274,0,0,0,.685-1.35c-.4-2.367-1.463-9.457-2.394-22.076-.758-10.264-7.43-16.6-16.6-16.6q-.963,0-1.888.093c-7.135.711-8.207,10.786-1.349,12.879.11.033.17.049.17.049l2.552,31.647.009.009C217.329,79.126,225.082,75.6,227.587,74.328Z" transform="translate(-16.686)"/><path class="c" d="M180.576,110.457v-6.886a5.107,5.107,0,0,1,3.043-4.671l10.754-4.75a2.554,2.554,0,0,0,1.522-2.336V86.2h12.766v5.613a2.553,2.553,0,0,0,1.522,2.336l10.754,4.75a5.107,5.107,0,0,1,3.043,4.671v6.886a1.277,1.277,0,0,1-1.277,1.277H181.853A1.276,1.276,0,0,1,180.576,110.457Z" transform="translate(-9.682 -17.427)"/><path class="k" d="M220.937,103.55l-7.932-3.5a11.474,11.474,0,0,1-21.454,0l-7.932,3.5a5.107,5.107,0,0,0-3.043,4.671v6.886a1.277,1.277,0,0,0,1.277,1.277H222.7a1.277,1.277,0,0,0,1.277-1.277v-6.886A5.107,5.107,0,0,0,220.937,103.55Z" transform="translate(-9.682 -22.076)"/><path class="d" d="M203.64,89.9a15.192,15.192,0,0,0,12.766,0V86.2H203.64v3.7Z" transform="translate(-17.427 -17.427)"/><path class="g" d="M218.275,60.025c-2.05-1.783-6.653-4.935-14.546-6.128a2.553,2.553,0,0,0-2.681,1.365A17.447,17.447,0,0,1,195.1,61.9a2.5,2.5,0,0,0-1.065,2.073v.725A13.057,13.057,0,0,0,205.946,77.87a12.767,12.767,0,0,0,13.616-12.738v-2.24A3.788,3.788,0,0,0,218.275,60.025Z" transform="translate(-14.2 -6.569)"/><path class="c" d="M218.989,60.906a3.665,3.665,0,0,0-.715-.881c-2.05-1.783-6.652-4.935-14.546-6.128a2.552,2.552,0,0,0-2.68,1.365,14.789,14.789,0,0,1-.77,1.359,18.047,18.047,0,0,1-5.163,5.262,2.526,2.526,0,0,0-1.085,2.086v.725a13.087,13.087,0,0,0,11.217,13.094,12.712,12.712,0,0,1-3.558-8.827V60.935a2.548,2.548,0,0,1,2.293-2.542A29.233,29.233,0,0,1,218.989,60.906Z" transform="translate(-14.2 -6.569)"/><g transform="translate(170.894 82.174)"><path class="l" d="M182.486,106.375a5.1,5.1,0,0,0-1.91,3.971v6.886a1.277,1.277,0,0,0,1.277,1.277h7.659v-3.52a3.828,3.828,0,0,0-1.122-2.708Z" transform="translate(-180.576 -106.375)"/><path class="l" d="M239.5,106.375a5.1,5.1,0,0,1,1.91,3.971v6.886a1.277,1.277,0,0,1-1.277,1.277h-7.659v-3.52a3.828,3.828,0,0,1,1.122-2.708Z" transform="translate(-198.003 -106.375)"/></g></g></svg>