<svg xmlns="http://www.w3.org/2000/svg" width="63.885" height="53.581" viewBox="0 0 63.885 53.581"><defs><style>.a{fill:#ffdc64;}.b{fill:#ffc850;}.c{fill:#fff;}.d{fill:#e6af78;}.e{fill:#ffaf3c;}.f{fill:#b4e66e;}.g{fill:#d29b6e;}.h{fill:#f0c087;}.i{fill:#694b4b;}.j{fill:#5a4146;}.k{fill:#a0d755;}</style></defs><g transform="translate(-58.212 -400.466)"><path class="a" d="M100.458,406.649l-4.975-4.975a4.121,4.121,0,0,0-2.915-1.207H61.3a3.091,3.091,0,0,0-3.091,3.091v47.4a3.091,3.091,0,0,0,3.091,3.091h57.7a3.091,3.091,0,0,0,3.091-3.091V409.739a3.091,3.091,0,0,0-3.091-3.091Z" transform="translate(0 0)"/><circle class="b" cx="15.456" cy="15.456" r="15.456" transform="translate(74.698 413.862)"/><circle class="c" cx="12.365" cy="12.365" r="12.365" transform="translate(77.789 416.952)"/><path class="d" d="M112.578,454.7l-2.413-1.207a1.029,1.029,0,0,1-.57-.921v-2.061h-4.121v2.061a1.03,1.03,0,0,1-.57.921l-2.413,1.207a2.06,2.06,0,0,0-1.139,1.843v3.635a12.3,12.3,0,0,0,12.365,0V456.54A2.06,2.06,0,0,0,112.578,454.7Z" transform="translate(-17.38 -20.161)"/><path class="b" d="M99.035,406.649h14.176l-4.975-4.975a4.121,4.121,0,0,0-2.915-1.207H89.865a4.121,4.121,0,0,1,2.915,1.207l4.069,4.069A3.092,3.092,0,0,0,99.035,406.649Z" transform="translate(-12.752 0)"/><path class="e" d="M110.644,400.466h-7.566a4.123,4.123,0,0,1,2.915,1.207l4.069,4.07a3.092,3.092,0,0,0,2.186.906h6.286l-4.975-4.975A4.12,4.12,0,0,0,110.644,400.466Z" transform="translate(-18.076 0)"/><path class="b" d="M119.005,486.722H61.3a3.091,3.091,0,0,1-3.091-3.091v-2.061H122.1v2.061A3.091,3.091,0,0,1,119.005,486.722Z" transform="translate(0 -32.675)"/><path class="f" d="M112.578,456.89l-1.88-.94a4.071,4.071,0,0,1-6.328,0l-1.879.94a2.06,2.06,0,0,0-1.139,1.843v3.635a12.293,12.293,0,0,0,12.365,0v-3.635A2.06,2.06,0,0,0,112.578,456.89Z" transform="translate(-17.38 -22.353)"/><path class="g" d="M108.12,450.508v2.061a1.021,1.021,0,0,1-.2.6,6.108,6.108,0,0,0,4.52,0,1.021,1.021,0,0,1-.2-.6v-2.061Z" transform="translate(-20.027 -20.161)"/><path class="h" d="M108.925,445.977h0a4.122,4.122,0,0,1-4.122-4.121V439.8a3.091,3.091,0,0,1,3.091-3.091h2.061a3.091,3.091,0,0,1,3.091,3.091v2.061A4.121,4.121,0,0,1,108.925,445.977Z" transform="translate(-18.771 -14.6)"/><path class="d" d="M107.894,441.856V439.8a3.085,3.085,0,0,1,2.576-3.039,3.052,3.052,0,0,0-.515-.052h-2.061A3.091,3.091,0,0,0,104.8,439.8v2.061a4.111,4.111,0,0,0,5.667,3.816A4.118,4.118,0,0,1,107.894,441.856Z" transform="translate(-18.771 -14.6)"/><path class="i" d="M104.8,439.8a28.526,28.526,0,0,0,8.243,1.03V439.8a3.091,3.091,0,0,0-3.091-3.091h-2.061A3.091,3.091,0,0,0,104.8,439.8Z" transform="translate(-18.771 -14.6)"/><path class="j" d="M107.894,439.8a3.085,3.085,0,0,1,2.576-3.039,3.052,3.052,0,0,0-.515-.052h-2.061A3.091,3.091,0,0,0,104.8,439.8a20.56,20.56,0,0,0,3.091.662V439.8Z" transform="translate(-18.771 -14.6)"/><g transform="translate(83.972 435.429)"><path class="k" d="M103.619,460.531l-2.018-1.513a2.043,2.043,0,0,0-.249.951V463.6a12.27,12.27,0,0,0,3.091,1.263V462.18A2.06,2.06,0,0,0,103.619,460.531Z" transform="translate(-101.352 -459.018)"/><path class="k" d="M117.707,460.531a2.061,2.061,0,0,0-.824,1.649v2.686a12.257,12.257,0,0,0,3.091-1.263v-3.635a2.043,2.043,0,0,0-.249-.951Z" transform="translate(-107.609 -459.018)"/></g></g></svg>