<svg xmlns="http://www.w3.org/2000/svg" xmlns:xlink="http://www.w3.org/1999/xlink" width="66.527" height="66.527" viewBox="0 0 66.527 66.527">
  <defs>
    <filter id="Path_824" x="0" y="0" width="66.527" height="66.527" filterUnits="userSpaceOnUse">
      <feOffset dy="1" input="SourceAlpha"/>
      <feGaussianBlur stdDeviation="1" result="blur"/>
      <feFlood flood-opacity="0.102"/>
      <feComposite operator="in" in2="blur"/>
      <feComposite in="SourceGraphic"/>
    </filter>
  </defs>
  <g id="Group_1515" data-name="Group 1515" transform="translate(3 2)">
    <g id="Group_1158" data-name="Group 1158">
      <g transform="matrix(1, 0, 0, 1, -3, -2)" filter="url(#Path_824)">
        <path id="Path_824-2" data-name="Path 824" d="M30.263,0A30.263,30.263,0,1,1,0,30.263,30.263,30.263,0,0,1,30.263,0Z" transform="translate(3 2)" fill="#fb6e52"/>
      </g>
      <path id="Path_897" data-name="Path 897" d="M6.01,12.933A25.15,25.15,0,0,0,16.951,23.874L20.6,20.222a1.651,1.651,0,0,1,1.693-.4,18.938,18.938,0,0,0,5.927.946,1.665,1.665,0,0,1,1.66,1.66v5.794a1.665,1.665,0,0,1-1.66,1.66A28.221,28.221,0,0,1,0,1.66,1.665,1.665,0,0,1,1.66,0H7.471a1.665,1.665,0,0,1,1.66,1.66,18.861,18.861,0,0,0,.946,5.927,1.666,1.666,0,0,1-.415,1.693Z" transform="translate(14.242 14.242)" fill="#fff"/>
    </g>
  </g>
</svg>
