<svg xmlns="http://www.w3.org/2000/svg" xmlns:xlink="http://www.w3.org/1999/xlink" width="66.527" height="66.527" viewBox="0 0 66.527 66.527">
  <defs>
    <filter id="Path_824" x="0" y="0" width="66.527" height="66.527" filterUnits="userSpaceOnUse">
      <feOffset dy="1" input="SourceAlpha"/>
      <feGaussianBlur stdDeviation="1" result="blur"/>
      <feFlood flood-opacity="0.102"/>
      <feComposite operator="in" in2="blur"/>
      <feComposite in="SourceGraphic"/>
    </filter>
  </defs>
  <g id="Group_1515" data-name="Group 1515" transform="translate(3 2.494)">
    <g id="Group_1158" data-name="Group 1158">
      <g transform="matrix(1, 0, 0, 1, -3, -2.49)" filter="url(#Path_824)">
        <path id="Path_824-2" data-name="Path 824" d="M30.263,0A30.263,30.263,0,1,1,0,30.263,30.263,30.263,0,0,1,30.263,0Z" transform="translate(3 2)" fill="#00e676"/>
      </g>
      <path id="Path_898" data-name="Path 898" d="M26.117,4.484A15.3,15.3,0,0,0,2.038,22.957L.047,29.543A.845.845,0,0,0,1.073,30.6l6.893-1.853a15.2,15.2,0,0,0,7.306,1.869h0A15.124,15.124,0,0,0,29.685,20.6,15.362,15.362,0,0,0,26.117,4.484ZM22.793,20.751a3.947,3.947,0,0,1-2.573,1.823c-.7.061-1.363.322-4.58-.95C11.749,20.092,9.3,16.11,9.115,15.85A7.207,7.207,0,0,1,7.522,11.9,4.268,4.268,0,0,1,8.854,8.712a1.4,1.4,0,0,1,1.026-.475c.26,0,.505,0,.735.015.276,0,.582.015.858.643.352.766,1.087,2.65,1.179,2.834a.734.734,0,0,1,.031.674,2.308,2.308,0,0,1-.383.643c-.184.214-.4.49-.567.659-.184.2-.383.4-.168.781a11.772,11.772,0,0,0,2.129,2.65,10.587,10.587,0,0,0,3.079,1.9c.383.184.613.153.827-.092.23-.26.95-1.118,1.21-1.5s.505-.322.858-.184S21.9,18.316,22.287,18.5s.643.291.735.444A3.524,3.524,0,0,1,22.793,20.751Z" transform="translate(15.002 14.5)" fill="#fff"/>
    </g>
  </g>
</svg>
