<svg xmlns="http://www.w3.org/2000/svg" width="10" height="8.684" viewBox="0 0 10 8.684">
  <path id="Path_1013" data-name="Path 1013" d="M7.211,8.211A2.105,2.105,0,1,0,5.105,6.105,2.1,2.1,0,0,0,7.211,8.211Zm0-3.158A1.053,1.053,0,1,1,6.158,6.105,1.056,1.056,0,0,1,7.211,5.053ZM4.053,11.368c.105-.332,1.353-.884,2.611-1.021L7.737,9.295a4.916,4.916,0,0,0-.526-.032C5.805,9.263,3,9.968,3,11.368v1.053H7.737L6.684,11.368Zm8.211-2.895-2.7,2.721L8.474,10.1l-.737.742,1.826,1.842L13,9.216Z" transform="translate(-3 -4)" fill="#b4b4b4"/>
</svg>
