<svg xmlns="http://www.w3.org/2000/svg" width="56" height="56" viewBox="0 0 56 56"><defs><style>.a,.f{fill:#fff;}.a,.h{stroke:#eaeaea;}.b{fill:#e2e5e7;}.c{fill:#b0b7bd;}.d{fill:#cad1d8;}.e{fill:#f15642;}.g{fill:#5f5f5f;font-size:8px;font-family:Calibri;}.h,.j{fill:none;}.i{stroke:none;}</style></defs><g transform="translate(-521 -369.216)"><g class="a" transform="translate(521 369.216)"><path class="i" d="M3,0H53a3,3,0,0,1,3,3V40a0,0,0,0,1,0,0H0a0,0,0,0,1,0,0V3A3,3,0,0,1,3,0Z"/><path class="j" d="M3,.5H53A2.5,2.5,0,0,1,55.5,3V39a.5.5,0,0,1-.5.5H1A.5.5,0,0,1,.5,39V3A2.5,2.5,0,0,1,3,.5Z"/></g><g transform="translate(537.321 375.347)"><path class="b" d="M97.7,0A1.7,1.7,0,0,0,96,1.7V25.449a1.7,1.7,0,0,0,1.7,1.7h16.966a1.7,1.7,0,0,0,1.7-1.7V6.786L109.573,0Z" transform="translate(-92.607)"/><path class="c" d="M353.7,6.786h5.09L352,0V5.09A1.7,1.7,0,0,0,353.7,6.786Z" transform="translate(-335.034)"/><path class="d" d="M389.09,133.09,384,128h5.09Z" transform="translate(-365.337 -121.214)"/><path class="e" d="M52.359,249.331a.851.851,0,0,1-.848.848H32.848a.851.851,0,0,1-.848-.848v-8.483a.851.851,0,0,1,.848-.848H51.511a.851.851,0,0,1,.848.848Z" transform="translate(-32 -227.275)"/><g transform="translate(3.698 15.605)"><path class="f" d="M101.744,294.788a.467.467,0,0,1,.461-.468h1.567a1.7,1.7,0,0,1,0,3.392h-1.132v.9a.426.426,0,0,1-.434.467.457.457,0,0,1-.461-.467Zm.895.386v1.69h1.132a.845.845,0,0,0,0-1.69Z" transform="translate(-101.744 -294.32)"/><path class="f" d="M188.292,300.166a.424.424,0,0,1-.468-.42v-3.853a.461.461,0,0,1,.468-.421h1.553c3.1,0,3.032,4.694.061,4.694Zm.428-3.866v3.039h1.126c1.832,0,1.913-3.039,0-3.039Z" transform="translate(-183.26 -295.411)"/><path class="f" d="M288.023,296.339v1.078h1.73a.525.525,0,0,1,.489.481.471.471,0,0,1-.489.407h-1.73v1.424a.4.4,0,0,1-.406.42.431.431,0,0,1-.481-.42v-3.853a.429.429,0,0,1,.481-.421H290a.423.423,0,0,1,.475.421.469.469,0,0,1-.475.461h-1.975Z" transform="translate(-277.307 -295.396)"/></g><path class="d" d="M112.118,416.848H96v.848h16.118a.851.851,0,0,0,.848-.848V416A.851.851,0,0,1,112.118,416.848Z" transform="translate(-92.607 -393.944)"/></g><text class="g" transform="translate(549 419.216)"><tspan x="-16.252" y="0">File Name</tspan></text><g class="h" transform="translate(521 408.216)"><path class="i" d="M0,0H56a0,0,0,0,1,0,0V14a3,3,0,0,1-3,3H3a3,3,0,0,1-3-3V0A0,0,0,0,1,0,0Z"/><path class="j" d="M1,.5H55a.5.5,0,0,1,.5.5V14A2.5,2.5,0,0,1,53,16.5H3A2.5,2.5,0,0,1,.5,14V1A.5.5,0,0,1,1,.5Z"/></g></g></svg>