<svg xmlns="http://www.w3.org/2000/svg" width="20.513" height="25" viewBox="0 0 20.513 25">
  <path id="Path_158" data-name="Path 158" d="M14.256,27.5a2.572,2.572,0,0,0,2.564-2.564H11.692A2.572,2.572,0,0,0,14.256,27.5Zm7.692-7.692V13.4c0-3.936-2.09-7.231-5.769-8.1V4.423a1.923,1.923,0,0,0-3.846,0v.872c-3.667.872-5.769,4.154-5.769,8.1v6.41L4,22.372v1.282H24.513V22.372ZM19.385,21.09H9.128V13.4c0-3.179,1.936-5.769,5.128-5.769s5.128,2.59,5.128,5.769Z" transform="translate(-4 -2.5)" fill="#b4b4b4"/>
</svg>
