<svg xmlns="http://www.w3.org/2000/svg" xmlns:xlink="http://www.w3.org/1999/xlink" width="39" height="39" viewBox="0 0 39 39">
  <defs>
    <filter id="Ellipse_35" x="0" y="0" width="39" height="39" filterUnits="userSpaceOnUse">
      <feOffset input="SourceAlpha"/>
      <feGaussianBlur stdDeviation="1.5" result="blur"/>
      <feFlood flood-opacity="0.102"/>
      <feComposite operator="in" in2="blur"/>
      <feComposite in="SourceGraphic"/>
    </filter>
  </defs>
  <g id="Group_2015" data-name="Group 2015" transform="translate(4.5 4.5)">
    <g transform="matrix(1, 0, 0, 1, -4.5, -4.5)" filter="url(#Ellipse_35)">
      <g id="Ellipse_35-2" data-name="Ellipse 35" transform="translate(4.5 4.5)" fill="#fff" stroke="#eaeaea" stroke-width="0.5">
        <circle cx="15" cy="15" r="15" stroke="none"/>
        <circle cx="15" cy="15" r="14.75" fill="none"/>
      </g>
    </g>
    <path id="Path_796" data-name="Path 796" d="M12.168,0H1.352A1.35,1.35,0,0,0,.007,1.352L0,9.464a1.356,1.356,0,0,0,1.352,1.352H12.168a1.356,1.356,0,0,0,1.352-1.352V1.352A1.356,1.356,0,0,0,12.168,0Zm0,2.7L6.76,6.084,1.352,2.7V1.352L6.76,4.732l5.408-3.38Z" transform="translate(8.252 9.779)" fill="#5d9cec"/>
  </g>
</svg>
