<svg xmlns="http://www.w3.org/2000/svg" width="43.29" height="61" viewBox="0 0 43.29 61"><defs><style>.a{fill:#f0c087;}.b{fill:#e6af78;}.c{fill:#fff;}.d{fill:#c7cfe2;}.e{fill:#b4e66e;}.f{fill:#afb9d2;}.g{fill:#ff507d;}.h{fill:#959cb5;}.i{fill:#ff6991;}</style></defs><g transform="translate(-212.483 -206.117)"><path class="a" d="M252.821,212.069H237.08a2.952,2.952,0,1,1-5.9,0H215.435a2.951,2.951,0,0,0-2.952,2.952v51.161a2.951,2.951,0,0,0,2.952,2.952h37.387a2.951,2.951,0,0,0,2.952-2.952V215.021A2.951,2.951,0,0,0,252.821,212.069Z" transform="translate(0 -2.017)"/><path class="b" d="M252.846,214.037h-5.9a.984.984,0,0,1-.984-.984v-.984h-7.871a2.952,2.952,0,1,1-5.9,0h-7.871v.984a.984.984,0,0,1-.984.984h-5.9A1.967,1.967,0,0,0,215.459,216V263.23a1.968,1.968,0,0,0,1.968,1.968h35.419a1.968,1.968,0,0,0,1.968-1.968V216A1.967,1.967,0,0,0,252.846,214.037Z" transform="translate(-1.008 -2.017)"/><path class="c" d="M252.87,265.247H219.419a.984.984,0,0,1-.984-.984V219a.984.984,0,0,1,.984-.984H252.87a.984.984,0,0,1,.984.984v45.258A.984.984,0,0,1,252.87,265.247Z" transform="translate(-2.017 -4.033)"/><path class="d" d="M247.569,208.085h-3.5a3.9,3.9,0,0,0-6.779,0h-3.5a1.967,1.967,0,0,0-1.968,1.968v3.935a.984.984,0,0,0,.984.984h15.742a.984.984,0,0,0,.984-.984v-3.935A1.967,1.967,0,0,0,247.569,208.085Zm-6.887,3.443a1.476,1.476,0,1,1,1.476-1.476A1.476,1.476,0,0,1,240.682,211.528Z" transform="translate(-6.554)"/><g transform="translate(231.668 233.173)"><circle class="e" cx="2.46" cy="2.46" r="2.46"/><circle class="e" cx="2.46" cy="2.46" r="2.46" transform="translate(0 8.855)"/><circle class="e" cx="2.46" cy="2.46" r="2.46" transform="translate(0 17.71)"/></g><path class="f" d="M246.874,248.261h-8.855a.984.984,0,0,1,0-1.968h8.855a.984.984,0,0,1,0,1.968Z" transform="translate(-8.318 -13.612)"/><path class="d" d="M248.553,254.213H232.811a.984.984,0,1,1,0-1.968h15.742a.984.984,0,1,1,0,1.968Z" transform="translate(-6.554 -15.628)"/><path class="f" d="M246.874,261.653h-8.855a.984.984,0,1,1,0-1.968h8.855a.984.984,0,1,1,0,1.968Z" transform="translate(-8.318 -18.149)"/><path class="d" d="M248.553,267.606H232.811a.984.984,0,1,1,0-1.968h15.742a.984.984,0,1,1,0,1.968Z" transform="translate(-6.554 -20.166)"/><path class="f" d="M246.874,275.046h-8.855a.984.984,0,1,1,0-1.968h8.855a.984.984,0,1,1,0,1.968Z" transform="translate(-8.318 -22.687)"/><path class="d" d="M248.553,281H232.811a.984.984,0,1,1,0-1.968h15.742a.984.984,0,1,1,0,1.968Z" transform="translate(-6.554 -24.703)"/><path class="g" d="M248.313,225.941H233.555a.984.984,0,1,1,0-1.968h14.758a.984.984,0,0,1,0,1.968Z" transform="translate(-6.806 -6.05)"/><path class="d" d="M250.472,239.333H226.859a.984.984,0,1,1,0-1.968h23.613a.984.984,0,0,1,0,1.968Z" transform="translate(-4.537 -10.587)"/><path class="h" d="M245.195,231.893h-1.968a.984.984,0,1,1,0-1.968h1.968a.984.984,0,1,1,0,1.968Z" transform="translate(-10.083 -8.066)"/><path class="f" d="M245.674,231.893h-3.935a.984.984,0,0,1,0-1.968h3.935a.984.984,0,1,1,0,1.968Z" transform="translate(-9.579 -8.066)"/><path class="g" d="M245.674,229.876h-3.935a.984.984,0,0,1-.984-.984v-3.935a.984.984,0,0,1,.984-.984h3.935a.984.984,0,0,1,.984.984v3.935A.984.984,0,0,1,245.674,229.876Z" transform="translate(-9.579 -6.05)"/><path class="f" d="M248.553,218.5H232.811a.984.984,0,0,1-.984-.984h0a.984.984,0,0,1,.984-.984h15.742a.984.984,0,0,1,.984.984h0A.984.984,0,0,1,248.553,218.5Z" transform="translate(-6.554 -3.529)"/><circle class="i" cx="1.476" cy="1.476" r="1.476" transform="translate(232.652 219.399)"/></g></svg>