<svg xmlns="http://www.w3.org/2000/svg" width="70.982" height="61" viewBox="0 0 70.982 61"><defs><style>.a{fill:#8c5f5f;}.b{fill:#785353;}.c{fill:#80e1ff;}.d{fill:#00c3ff;}.e{fill:#afb9d2;}.f{fill:#d5dced;}.g{fill:#e6af78;}.h{fill:#d29b6e;}</style></defs><g transform="translate(-258.723 -589.858)"><path class="a" d="M291.845,610.931V590.967a1.109,1.109,0,0,1,1.11-1.109h24.4a1.109,1.109,0,0,1,1.109,1.109v19.964" transform="translate(-10.94)"/><rect class="b" width="26.618" height="6.655" transform="translate(280.905 604.276)"/><path class="c" d="M299.032,618.589h-2.218V613.6a.555.555,0,0,1,.555-.555h1.109a.555.555,0,0,1,.555.555Z" transform="translate(-12.582 -7.658)"/><path class="d" d="M299.032,615.262h-2.218V613.6a.555.555,0,0,1,.555-.555h1.109a.555.555,0,0,1,.555.555Z" transform="translate(-12.582 -7.658)"/><path class="c" d="M305.657,618.589h-2.219V613.6a.555.555,0,0,1,.555-.555H305.1a.555.555,0,0,1,.555.555Z" transform="translate(-14.77 -7.658)"/><path class="d" d="M305.657,615.262h-2.219V613.6a.555.555,0,0,1,.555-.555H305.1a.555.555,0,0,1,.555.555Z" transform="translate(-14.77 -7.658)"/><path class="c" d="M312.281,618.589h-2.218V613.6a.555.555,0,0,1,.555-.555h1.109a.555.555,0,0,1,.555.555Z" transform="translate(-16.958 -7.658)"/><path class="d" d="M312.281,615.262h-2.218V613.6a.555.555,0,0,1,.555-.555h1.109a.555.555,0,0,1,.555.555Z" transform="translate(-16.958 -7.658)"/><path class="c" d="M318.906,618.589h-2.219V613.6a.555.555,0,0,1,.555-.555h1.109a.555.555,0,0,1,.555.555Z" transform="translate(-19.146 -7.658)"/><path class="d" d="M318.906,615.262h-2.219V613.6a.555.555,0,0,1,.555-.555h1.109a.555.555,0,0,1,.555.555Z" transform="translate(-19.146 -7.658)"/><path class="c" d="M325.53,618.589h-2.218V613.6a.555.555,0,0,1,.555-.555h1.109a.555.555,0,0,1,.555.555Z" transform="translate(-21.334 -7.658)"/><path class="d" d="M325.53,615.262h-2.218V613.6a.555.555,0,0,1,.555-.555h1.109a.555.555,0,0,1,.555.555Z" transform="translate(-21.334 -7.658)"/><path class="e" d="M318.479,621.886H289.642a1.109,1.109,0,1,1,0-2.218h28.837a1.109,1.109,0,1,1,0,2.218Z" transform="translate(-9.846 -9.846)"/><path class="f" d="M321.177,642.032l-6.994-9.447a4.449,4.449,0,0,0-3.61-1.856h-7.16V627.4a1.109,1.109,0,0,0-2.218,0v3.328h-7.16a4.437,4.437,0,0,0-3.6,1.842l-7.006,9.461a1.109,1.109,0,1,0,1.783,1.319l7.016-9.476a2.224,2.224,0,0,1,1.806-.929h7.16v9.982a1.109,1.109,0,0,0,2.218,0v-9.982h7.16a2.234,2.234,0,0,1,1.816.944l7.006,9.461a1.109,1.109,0,1,0,1.783-1.319Z" transform="translate(-8.088 -12.034)"/><path class="d" d="M298.478,598.153h-1.109a.554.554,0,0,1-.555-.555V595.38a.555.555,0,0,1,.555-.555h1.109a.555.555,0,0,1,.555.555V597.6A.554.554,0,0,1,298.478,598.153Z" transform="translate(-12.582 -1.641)"/><path class="c" d="M298.478,598.7h-1.109a.554.554,0,0,1-.555-.555v-1.109a.555.555,0,0,1,.555-.554h1.109a.555.555,0,0,1,.555.554v1.109A.554.554,0,0,1,298.478,598.7Z" transform="translate(-12.582 -2.188)"/><path class="d" d="M305.1,598.153h-1.109a.554.554,0,0,1-.555-.555V595.38a.555.555,0,0,1,.555-.555H305.1a.555.555,0,0,1,.555.555V597.6A.554.554,0,0,1,305.1,598.153Z" transform="translate(-14.77 -1.641)"/><path class="c" d="M305.1,598.7h-1.109a.554.554,0,0,1-.555-.555v-1.109a.555.555,0,0,1,.555-.554H305.1a.555.555,0,0,1,.555.554v1.109A.555.555,0,0,1,305.1,598.7Z" transform="translate(-14.77 -2.188)"/><path class="d" d="M311.727,598.153h-1.109a.554.554,0,0,1-.555-.555V595.38a.555.555,0,0,1,.555-.555h1.109a.555.555,0,0,1,.555.555V597.6A.554.554,0,0,1,311.727,598.153Z" transform="translate(-16.958 -1.641)"/><path class="c" d="M311.727,598.7h-1.109a.554.554,0,0,1-.555-.555v-1.109a.555.555,0,0,1,.555-.554h1.109a.555.555,0,0,1,.555.554v1.109A.554.554,0,0,1,311.727,598.7Z" transform="translate(-16.958 -2.188)"/><path class="d" d="M318.351,598.153h-1.109a.554.554,0,0,1-.555-.555V595.38a.555.555,0,0,1,.555-.555h1.109a.555.555,0,0,1,.555.555V597.6A.554.554,0,0,1,318.351,598.153Z" transform="translate(-19.146 -1.641)"/><path class="c" d="M318.351,598.7h-1.109a.554.554,0,0,1-.555-.555v-1.109a.555.555,0,0,1,.555-.554h1.109a.555.555,0,0,1,.555.554v1.109A.554.554,0,0,1,318.351,598.7Z" transform="translate(-19.146 -2.188)"/><path class="d" d="M324.976,598.153h-1.109a.554.554,0,0,1-.555-.555V595.38a.555.555,0,0,1,.555-.555h1.109a.555.555,0,0,1,.555.555V597.6A.554.554,0,0,1,324.976,598.153Z" transform="translate(-21.334 -1.641)"/><path class="c" d="M324.976,598.7h-1.109a.554.554,0,0,1-.555-.555v-1.109a.555.555,0,0,1,.555-.554h1.109a.555.555,0,0,1,.555.554v1.109A.554.554,0,0,1,324.976,598.7Z" transform="translate(-21.334 -2.188)"/><path class="d" d="M298.478,606.434h-1.109a.555.555,0,0,1-.555-.555v-2.218a.554.554,0,0,1,.555-.555h1.109a.554.554,0,0,1,.555.555v2.218A.555.555,0,0,1,298.478,606.434Z" transform="translate(-12.582 -4.376)"/><path class="c" d="M298.478,606.981h-1.109a.555.555,0,0,1-.555-.555v-1.109a.554.554,0,0,1,.555-.555h1.109a.554.554,0,0,1,.555.555v1.109A.555.555,0,0,1,298.478,606.981Z" transform="translate(-12.582 -4.923)"/><path class="d" d="M305.1,606.434h-1.109a.555.555,0,0,1-.555-.555v-2.218a.554.554,0,0,1,.555-.555H305.1a.554.554,0,0,1,.555.555v2.218A.555.555,0,0,1,305.1,606.434Z" transform="translate(-14.77 -4.376)"/><path class="c" d="M305.1,606.981h-1.109a.555.555,0,0,1-.555-.555v-1.109a.554.554,0,0,1,.555-.555H305.1a.554.554,0,0,1,.555.555v1.109A.555.555,0,0,1,305.1,606.981Z" transform="translate(-14.77 -4.923)"/><path class="d" d="M311.727,606.434h-1.109a.555.555,0,0,1-.555-.555v-2.218a.554.554,0,0,1,.555-.555h1.109a.554.554,0,0,1,.555.555v2.218A.555.555,0,0,1,311.727,606.434Z" transform="translate(-16.958 -4.376)"/><path class="c" d="M311.727,606.981h-1.109a.555.555,0,0,1-.555-.555v-1.109a.554.554,0,0,1,.555-.555h1.109a.554.554,0,0,1,.555.555v1.109A.555.555,0,0,1,311.727,606.981Z" transform="translate(-16.958 -4.923)"/><path class="d" d="M318.351,606.434h-1.109a.555.555,0,0,1-.555-.555v-2.218a.554.554,0,0,1,.555-.555h1.109a.554.554,0,0,1,.555.555v2.218A.555.555,0,0,1,318.351,606.434Z" transform="translate(-19.146 -4.376)"/><path class="c" d="M318.351,606.981h-1.109a.555.555,0,0,1-.555-.555v-1.109a.554.554,0,0,1,.555-.555h1.109a.554.554,0,0,1,.555.555v1.109A.555.555,0,0,1,318.351,606.981Z" transform="translate(-19.146 -4.923)"/><path class="d" d="M324.976,606.434h-1.109a.555.555,0,0,1-.555-.555v-2.218a.554.554,0,0,1,.555-.555h1.109a.554.554,0,0,1,.555.555v2.218A.555.555,0,0,1,324.976,606.434Z" transform="translate(-21.334 -4.376)"/><path class="c" d="M324.976,606.981h-1.109a.555.555,0,0,1-.555-.555v-1.109a.554.554,0,0,1,.555-.555h1.109a.554.554,0,0,1,.555.555v1.109A.555.555,0,0,1,324.976,606.981Z" transform="translate(-21.334 -4.923)"/><path class="g" d="M262.035,657.212V671.63h17.746V657.212a1.109,1.109,0,0,0-1.109-1.109H263.144A1.109,1.109,0,0,0,262.035,657.212Z" transform="translate(-1.094 -21.881)"/><rect class="h" width="17.746" height="6.655" transform="translate(260.941 643.095)"/><path class="d" d="M268.668,664.4h-1.109a.554.554,0,0,1-.555-.555v-2.218a.554.554,0,0,1,.555-.555h1.109a.555.555,0,0,1,.555.555v2.218A.554.554,0,0,1,268.668,664.4Z" transform="translate(-2.735 -23.522)"/><path class="c" d="M268.668,664.945h-1.109a.554.554,0,0,1-.555-.555v-1.109a.554.554,0,0,1,.555-.555h1.109a.555.555,0,0,1,.555.555v1.109A.554.554,0,0,1,268.668,664.945Z" transform="translate(-2.735 -24.069)"/><path class="d" d="M275.292,664.4h-1.109a.554.554,0,0,1-.555-.555v-2.218a.555.555,0,0,1,.555-.555h1.109a.554.554,0,0,1,.555.555v2.218A.554.554,0,0,1,275.292,664.4Z" transform="translate(-4.923 -23.522)"/><path class="c" d="M275.292,664.945h-1.109a.554.554,0,0,1-.555-.555v-1.109a.555.555,0,0,1,.555-.555h1.109a.554.554,0,0,1,.555.555v1.109A.554.554,0,0,1,275.292,664.945Z" transform="translate(-4.923 -24.069)"/><path class="d" d="M281.917,664.4h-1.109a.554.554,0,0,1-.555-.555v-2.218a.554.554,0,0,1,.555-.555h1.109a.555.555,0,0,1,.555.555v2.218A.554.554,0,0,1,281.917,664.4Z" transform="translate(-7.111 -23.522)"/><g transform="translate(264.269 638.658)"><path class="c" d="M281.917,664.945h-1.109a.554.554,0,0,1-.555-.555v-1.109a.554.554,0,0,1,.555-.555h1.109a.555.555,0,0,1,.555.555v1.109A.554.554,0,0,1,281.917,664.945Z" transform="translate(-271.38 -662.727)"/><path class="c" d="M269.222,676.553H267v-4.991a.554.554,0,0,1,.555-.554h1.109a.554.554,0,0,1,.555.554Z" transform="translate(-267.004 -665.462)"/></g><path class="d" d="M269.222,673.226H267v-1.664a.554.554,0,0,1,.555-.554h1.109a.554.554,0,0,1,.555.554Z" transform="translate(-2.735 -26.804)"/><path class="c" d="M282.471,676.553h-2.218v-4.991a.554.554,0,0,1,.555-.554h1.109a.554.554,0,0,1,.555.554Z" transform="translate(-7.111 -26.804)"/><path class="d" d="M282.471,673.226h-2.218v-1.664a.554.554,0,0,1,.555-.554h1.109a.554.554,0,0,1,.555.554Z" transform="translate(-7.111 -26.804)"/><path class="c" d="M275.846,676.553h-2.218v-4.991a.554.554,0,0,1,.555-.554h1.109a.554.554,0,0,1,.555.554Z" transform="translate(-4.923 -26.804)"/><path class="d" d="M275.846,673.226h-2.218v-1.664a.554.554,0,0,1,.555-.554h1.109a.554.554,0,0,1,.555.554Z" transform="translate(-4.923 -26.804)"/><path class="e" d="M279.8,679.85H259.832a1.109,1.109,0,1,1,0-2.218H279.8a1.109,1.109,0,1,1,0,2.218Z" transform="translate(0 -28.992)"/><path class="g" d="M298.47,657.212V671.63h17.746V657.212a1.109,1.109,0,0,0-1.109-1.109H299.579A1.109,1.109,0,0,0,298.47,657.212Z" transform="translate(-13.129 -21.881)"/><rect class="h" width="17.746" height="6.655" transform="translate(285.341 643.095)"/><path class="d" d="M305.1,664.4h-1.109a.554.554,0,0,1-.555-.555v-2.218a.555.555,0,0,1,.555-.555H305.1a.555.555,0,0,1,.555.555v2.218A.554.554,0,0,1,305.1,664.4Z" transform="translate(-14.77 -23.522)"/><path class="c" d="M305.1,664.945h-1.109a.554.554,0,0,1-.555-.555v-1.109a.555.555,0,0,1,.555-.555H305.1a.555.555,0,0,1,.555.555v1.109A.554.554,0,0,1,305.1,664.945Z" transform="translate(-14.77 -24.069)"/><path class="d" d="M311.727,664.4h-1.109a.554.554,0,0,1-.555-.555v-2.218a.555.555,0,0,1,.555-.555h1.109a.555.555,0,0,1,.555.555v2.218A.554.554,0,0,1,311.727,664.4Z" transform="translate(-16.958 -23.522)"/><path class="c" d="M311.727,664.945h-1.109a.554.554,0,0,1-.555-.555v-1.109a.555.555,0,0,1,.555-.555h1.109a.555.555,0,0,1,.555.555v1.109A.554.554,0,0,1,311.727,664.945Z" transform="translate(-16.958 -24.069)"/><path class="d" d="M318.351,664.4h-1.109a.554.554,0,0,1-.555-.555v-2.218a.555.555,0,0,1,.555-.555h1.109a.555.555,0,0,1,.555.555v2.218A.554.554,0,0,1,318.351,664.4Z" transform="translate(-19.146 -23.522)"/><g transform="translate(288.668 638.658)"><path class="c" d="M318.351,664.945h-1.109a.554.554,0,0,1-.555-.555v-1.109a.555.555,0,0,1,.555-.555h1.109a.555.555,0,0,1,.555.555v1.109A.554.554,0,0,1,318.351,664.945Z" transform="translate(-307.814 -662.727)"/><path class="c" d="M305.657,676.553h-2.219v-4.991a.554.554,0,0,1,.555-.554H305.1a.554.554,0,0,1,.555.554Z" transform="translate(-303.438 -665.462)"/></g><path class="d" d="M305.657,673.226h-2.219v-1.664a.554.554,0,0,1,.555-.554H305.1a.554.554,0,0,1,.555.554Z" transform="translate(-14.77 -26.804)"/><path class="c" d="M318.906,676.553h-2.219v-4.991a.554.554,0,0,1,.555-.554h1.109a.554.554,0,0,1,.555.554Z" transform="translate(-19.146 -26.804)"/><path class="d" d="M318.906,673.226h-2.219v-1.664a.554.554,0,0,1,.555-.554h1.109a.554.554,0,0,1,.555.554Z" transform="translate(-19.146 -26.804)"/><path class="c" d="M312.281,676.553h-2.218v-4.991a.554.554,0,0,1,.555-.554h1.109a.554.554,0,0,1,.555.554Z" transform="translate(-16.958 -26.804)"/><path class="d" d="M312.281,673.226h-2.218v-1.664a.554.554,0,0,1,.555-.554h1.109a.554.554,0,0,1,.555.554Z" transform="translate(-16.958 -26.804)"/><path class="e" d="M316.231,679.85H296.267a1.109,1.109,0,1,1,0-2.218h19.964a1.109,1.109,0,1,1,0,2.218Z" transform="translate(-12.035 -28.992)"/><path class="g" d="M334.9,657.212V671.63h17.746V657.212a1.109,1.109,0,0,0-1.109-1.109H336.014A1.109,1.109,0,0,0,334.9,657.212Z" transform="translate(-25.163 -21.881)"/><rect class="h" width="17.746" height="6.655" transform="translate(309.742 643.095)"/><path class="d" d="M341.537,664.4h-1.109a.554.554,0,0,1-.555-.555v-2.218a.555.555,0,0,1,.555-.555h1.109a.554.554,0,0,1,.555.555v2.218A.554.554,0,0,1,341.537,664.4Z" transform="translate(-26.804 -23.522)"/><path class="c" d="M341.537,664.945h-1.109a.554.554,0,0,1-.555-.555v-1.109a.555.555,0,0,1,.555-.555h1.109a.554.554,0,0,1,.555.555v1.109A.554.554,0,0,1,341.537,664.945Z" transform="translate(-26.804 -24.069)"/><path class="d" d="M348.162,664.4h-1.109a.554.554,0,0,1-.555-.555v-2.218a.554.554,0,0,1,.555-.555h1.109a.555.555,0,0,1,.555.555v2.218A.554.554,0,0,1,348.162,664.4Z" transform="translate(-28.992 -23.522)"/><path class="c" d="M348.162,664.945h-1.109a.554.554,0,0,1-.555-.555v-1.109a.554.554,0,0,1,.555-.555h1.109a.555.555,0,0,1,.555.555v1.109A.554.554,0,0,1,348.162,664.945Z" transform="translate(-28.992 -24.069)"/><path class="d" d="M354.786,664.4h-1.109a.554.554,0,0,1-.555-.555v-2.218a.555.555,0,0,1,.555-.555h1.109a.554.554,0,0,1,.555.555v2.218A.554.554,0,0,1,354.786,664.4Z" transform="translate(-31.18 -23.522)"/><g transform="translate(313.069 638.658)"><path class="c" d="M354.786,664.945h-1.109a.554.554,0,0,1-.555-.555v-1.109a.555.555,0,0,1,.555-.555h1.109a.554.554,0,0,1,.555.555v1.109A.554.554,0,0,1,354.786,664.945Z" transform="translate(-344.249 -662.727)"/><path class="c" d="M342.091,676.553h-2.218v-4.991a.554.554,0,0,1,.555-.554h1.109a.554.554,0,0,1,.555.554Z" transform="translate(-339.873 -665.462)"/></g><path class="d" d="M342.091,673.226h-2.218v-1.664a.554.554,0,0,1,.555-.554h1.109a.554.554,0,0,1,.555.554Z" transform="translate(-26.804 -26.804)"/><path class="c" d="M355.34,676.553h-2.218v-4.991a.554.554,0,0,1,.555-.554h1.109a.554.554,0,0,1,.555.554Z" transform="translate(-31.18 -26.804)"/><path class="d" d="M355.34,673.226h-2.218v-1.664a.554.554,0,0,1,.555-.554h1.109a.554.554,0,0,1,.555.554Z" transform="translate(-31.18 -26.804)"/><path class="c" d="M348.716,676.553H346.5v-4.991a.554.554,0,0,1,.555-.554h1.109a.554.554,0,0,1,.555.554Z" transform="translate(-28.992 -26.804)"/><path class="d" d="M348.716,673.226H346.5v-1.664a.554.554,0,0,1,.555-.554h1.109a.554.554,0,0,1,.555.554Z" transform="translate(-28.992 -26.804)"/><path class="e" d="M352.665,679.85H332.7a1.109,1.109,0,1,1,0-2.218h19.964a1.109,1.109,0,1,1,0,2.218Z" transform="translate(-24.069 -28.992)"/></g></svg>