<svg xmlns="http://www.w3.org/2000/svg" width="11.791" height="15.476" viewBox="0 0 11.791 15.476">
  <path id="Path_948" data-name="Path 948" d="M14.317,6.159H13.58V4.685a3.685,3.685,0,1,0-7.37,0V6.159H5.474A1.478,1.478,0,0,0,4,7.633V15a1.478,1.478,0,0,0,1.474,1.474h8.843A1.478,1.478,0,0,0,15.791,15V7.633A1.478,1.478,0,0,0,14.317,6.159ZM7.685,4.685a2.211,2.211,0,0,1,4.422,0V6.159H7.685ZM14.317,15H5.474V7.633h8.843ZM9.9,12.791a1.474,1.474,0,1,0-1.474-1.474A1.478,1.478,0,0,0,9.9,12.791Z" transform="translate(-4 -1)" fill="#053c6d"/>
</svg>
