<svg xmlns="http://www.w3.org/2000/svg" width="24" height="24" viewBox="0 0 24 24"><defs><style>.a{fill:none;}.b{fill:#5f5f5f;}</style></defs><path class="a" d="M0,0H24V24H0Z"/><path class="b" d="M20,4H4A2.006,2.006,0,0,0,2,6V18a2.006,2.006,0,0,0,2,2H20a2.006,2.006,0,0,0,2-2V6A2.006,2.006,0,0,0,20,4Zm0,14H4V6H20ZM4,0H20V2H4ZM4,22H20v2H4Zm8-10A2.5,2.5,0,1,0,9.5,9.5,2.5,2.5,0,0,0,12,12Zm0-3.5a1,1,0,1,1-1,1A1,1,0,0,1,12,8.5Zm5,7.49C17,13.9,13.69,13,12,13s-5,.9-5,2.99V17H17ZM8.81,15.5a5.6,5.6,0,0,1,6.39,0Z"/></svg>