<svg xmlns="http://www.w3.org/2000/svg" width="23.03" height="20" viewBox="0 0 23.03 20"><defs><style>.a{fill:#053c6d;}</style></defs><path class="a" d="M12.7,13.7A4.848,4.848,0,1,0,7.848,8.848,4.847,4.847,0,0,0,12.7,13.7Zm0-7.273a2.424,2.424,0,1,1-2.424,2.424A2.431,2.431,0,0,1,12.7,6.424ZM5.424,20.97c.242-.764,3.115-2.036,6.012-2.352l2.473-2.424a11.322,11.322,0,0,0-1.212-.073c-3.236,0-9.7,1.624-9.7,4.848v2.424H13.909L11.485,20.97ZM24.333,14.3,18.115,20.57l-2.509-2.521-1.7,1.709L18.115,24l7.915-7.988Z" transform="translate(-3 -4)"/></svg>