<svg xmlns="http://www.w3.org/2000/svg" width="61" height="61" viewBox="0 0 61 61"><defs><style>.a{fill:#e6af78;}.b{fill:#d29b6e;}.c{fill:#afb9d2;}.d{fill:#5a4146;}.e{fill:#694b4b;}.f{fill:#f0c087;}.g{fill:#959cb5;}</style></defs><g transform="translate(-354.621 -400.254)"><path class="a" d="M402.979,452.289l-4.5-1.929a.985.985,0,0,1-.6-.9v-1.319h-5.9v1.319a.985.985,0,0,1-.6.9l-4.5,1.929A2.952,2.952,0,0,0,385.091,455v9.86h19.678V455A2.952,2.952,0,0,0,402.979,452.289Z" transform="translate(-9.809 -15.414)"/><path class="b" d="M397.97,451.088a7.823,7.823,0,0,0,3.435-.8.974.974,0,0,1-.483-.835v-1.319h-5.9v1.319a.975.975,0,0,1-.484.835A7.828,7.828,0,0,0,397.97,451.088Z" transform="translate(-12.849 -15.414)"/><path class="c" d="M402.979,453.479l-3.839-1.645a4.882,4.882,0,0,1-8.422,0l-3.839,1.645a2.952,2.952,0,0,0-1.789,2.713v9.86h19.678v-9.86A2.952,2.952,0,0,0,402.979,453.479Z" transform="translate(-9.809 -16.605)"/><path class="d" d="M389.444,430.774v.69a7.863,7.863,0,0,0,.4,2.489l1.564,4.692h2.952V427.822H392.4A2.952,2.952,0,0,0,389.444,430.774Z" transform="translate(-11.21 -8.875)"/><path class="e" d="M403.85,432.35l-1.665,5.827-7.871-6.887a1.968,1.968,0,0,1-1.968-1.968h0a2.952,2.952,0,0,1,2.952-2.952h6.887a1.968,1.968,0,0,1,1.968,1.968v1.85A7.876,7.876,0,0,1,403.85,432.35Z" transform="translate(-12.144 -8.408)"/><path class="f" d="M396.8,444.454h0a5.9,5.9,0,0,1-5.9-5.9V437.4a1.969,1.969,0,0,1,.576-1.391l1.784-1.784a1.945,1.945,0,0,1,1.429-.578c3.145.1,5.928.773,7.451,2.259a1.944,1.944,0,0,1,.567,1.393v1.254A5.9,5.9,0,0,1,396.8,444.454Z" transform="translate(-11.677 -10.749)"/><path class="a" d="M393.847,437.643a1.964,1.964,0,0,1,2.086-1.965,20.752,20.752,0,0,1,6.741,1.329,1.905,1.905,0,0,0-.539-1.1c-1.522-1.486-4.306-2.16-7.451-2.259h0a1.944,1.944,0,0,0-1.428.578l-1.784,1.784a1.968,1.968,0,0,0-.576,1.391v1.153a5.9,5.9,0,0,0,4.268,5.669,5.852,5.852,0,0,1-1.316-3.7Z" transform="translate(-11.677 -10.749)"/><g transform="translate(375.282 437.737)"><path class="g" d="M388.162,457.943l-2.411-2.411a2.947,2.947,0,0,0-.66,1.85v9.86h3.936V460.03A2.952,2.952,0,0,0,388.162,457.943Z" transform="translate(-385.091 -455.532)"/><path class="g" d="M409.171,457.943l2.411-2.411a2.943,2.943,0,0,1,.66,1.85v9.86h-3.935V460.03A2.951,2.951,0,0,1,409.171,457.943Z" transform="translate(-392.565 -455.532)"/></g><path class="c" d="M414.637,425.835h-2.616a.983.983,0,0,1-.957-.783,26.386,26.386,0,0,0-3.566-8.613.982.982,0,0,1,.124-1.229l1.848-1.848a.984.984,0,0,0,0-1.391L403.9,406.4a.984.984,0,0,0-1.391,0l-1.848,1.848a.982.982,0,0,1-1.229.124,26.4,26.4,0,0,0-8.614-3.567.982.982,0,0,1-.783-.956v-2.616a.983.983,0,0,0-.984-.984h-7.87a.983.983,0,0,0-.984.984v2.616a.982.982,0,0,1-.783.956,26.4,26.4,0,0,0-8.614,3.567.981.981,0,0,1-1.229-.124l-1.848-1.848a.985.985,0,0,0-1.391,0l-5.566,5.566a.984.984,0,0,0,0,1.391l1.848,1.848a.982.982,0,0,1,.123,1.229,26.416,26.416,0,0,0-3.566,8.613.982.982,0,0,1-.956.783H355.6a.984.984,0,0,0-.984.984v7.871a.984.984,0,0,0,.984.984h2.616a.981.981,0,0,1,.956.783,26.4,26.4,0,0,0,3.567,8.613.982.982,0,0,1-.124,1.229l-1.848,1.848a.985.985,0,0,0,0,1.391l5.566,5.566a.983.983,0,0,0,1.391,0l1.848-1.848a.981.981,0,0,1,1.229-.123,26.415,26.415,0,0,0,8.613,3.566.981.981,0,0,1,.783.956v2.616a.984.984,0,0,0,.984.984h7.871a.984.984,0,0,0,.984-.984v-2.616a.981.981,0,0,1,.783-.956,26.416,26.416,0,0,0,8.613-3.566.982.982,0,0,1,1.229.123l1.848,1.848a.983.983,0,0,0,1.391,0l5.566-5.566a.985.985,0,0,0,0-1.391l-1.848-1.848a.982.982,0,0,1-.124-1.229,26.4,26.4,0,0,0,3.567-8.613.981.981,0,0,1,.956-.783h2.616a.984.984,0,0,0,.984-.984v-7.871A.984.984,0,0,0,414.637,425.835Zm-29.516,23.613a18.693,18.693,0,1,1,18.693-18.693A18.693,18.693,0,0,1,385.121,449.447Z"/><path class="g" d="M389.325,413.313a21.645,21.645,0,1,0,21.645,21.645A21.645,21.645,0,0,0,389.325,413.313Zm0,39.354a17.71,17.71,0,1,1,17.709-17.709A17.71,17.71,0,0,1,389.325,452.667Z" transform="translate(-4.204 -4.204)"/></g></svg>