<svg xmlns="http://www.w3.org/2000/svg" width="16.023" height="13.866" viewBox="0 0 16.023 13.866">
  <path id="Path_1041" data-name="Path 1041" d="M110.323,23.959v-2.8a1.4,1.4,0,0,0-1.4-1.4h-11.2a1.4,1.4,0,0,0-1.393,1.4v2.8a1.4,1.4,0,0,1-.007,2.8v2.8a1.4,1.4,0,0,0,1.4,1.4h11.2a1.4,1.4,0,0,0,1.4-1.4v-2.8a1.4,1.4,0,0,1,0-2.8Zm-1.4-1.022a2.8,2.8,0,0,0,0,4.844v1.778h-11.2V27.781a2.8,2.8,0,0,0,.007-4.844l-.007-1.778h11.2Zm-3.184.493-.486-.487-1.929,1.929-1.929-1.929-.486.487,1.929,1.929-1.929,1.929.486.486,1.929-1.929,1.929,1.929.486-.486-1.929-1.929Z" transform="matrix(0.978, -0.208, 0.208, 0.978, -98.326, 3.61)" fill="#053c6d"/>
</svg>
