<svg xmlns="http://www.w3.org/2000/svg" width="10.738" height="7.55" viewBox="0 0 10.738 7.55"><defs><style>.a{fill:#5f5f5f;}</style></defs><path class="a" d="M10.738,76.944A.945.945,0,0,0,9.794,76H.944A.945.945,0,0,0,0,76.944v5.663a.945.945,0,0,0,.944.944H9.794a.945.945,0,0,0,.944-.944ZM.629,77.072l2.719,2.7-2.719,2.7Zm5.407,3.164a.944.944,0,0,1-1.335,0L1.076,76.629H9.662Zm-2.242-.015.463.46a1.573,1.573,0,0,0,2.224,0l.463-.461,2.718,2.7H1.076Zm3.6-.444,2.719-2.7v5.406Z" transform="translate(0 -76)"/></svg>