<svg xmlns="http://www.w3.org/2000/svg" xmlns:xlink="http://www.w3.org/1999/xlink" width="66.527" height="66.527" viewBox="0 0 66.527 66.527">
  <defs>
    <linearGradient id="linear-gradient" x1="0.5" x2="0.5" y2="1" gradientUnits="objectBoundingBox">
      <stop offset="0" stop-color="#405de6"/>
      <stop offset="0.113" stop-color="#5b51d8"/>
      <stop offset="0.217" stop-color="#833ab4"/>
      <stop offset="0.335" stop-color="#c13584"/>
      <stop offset="0.471" stop-color="#e1306c"/>
      <stop offset="0.599" stop-color="#fd1d1d"/>
      <stop offset="0.702" stop-color="#f56040"/>
      <stop offset="0.797" stop-color="#f77737"/>
      <stop offset="0.905" stop-color="#fcaf45"/>
      <stop offset="1" stop-color="#ffdc80"/>
    </linearGradient>
    <filter id="Path_824" x="0" y="0" width="66.527" height="66.527" filterUnits="userSpaceOnUse">
      <feOffset dy="1" input="SourceAlpha"/>
      <feGaussianBlur stdDeviation="1" result="blur"/>
      <feFlood flood-opacity="0.102"/>
      <feComposite operator="in" in2="blur"/>
      <feComposite in="SourceGraphic"/>
    </filter>
  </defs>
  <g id="Group_1515" data-name="Group 1515" transform="translate(3 2.494)">
    <g id="Group_1158" data-name="Group 1158">
      <g transform="matrix(1, 0, 0, 1, -3, -2.49)" filter="url(#Path_824)">
        <path id="Path_824-2" data-name="Path 824" d="M30.263,0A30.263,30.263,0,1,1,0,30.263,30.263,30.263,0,0,1,30.263,0Z" transform="translate(3 2)" fill="url(#linear-gradient)"/>
      </g>
      <path id="Path_907" data-name="Path 907" d="M31.694,9.38a8.285,8.285,0,0,0-8.28-8.28H9.38A8.285,8.285,0,0,0,1.1,9.38V23.414a8.285,8.285,0,0,0,8.28,8.28H23.414a8.285,8.285,0,0,0,8.28-8.28Zm-2.526,0V23.414a5.756,5.756,0,0,1-5.754,5.754H9.38a5.756,5.756,0,0,1-5.754-5.754V9.38A5.756,5.756,0,0,1,9.38,3.626H23.414A5.756,5.756,0,0,1,29.168,9.38ZM23.26,15.328a6.89,6.89,0,0,0-5.793-5.793,6.741,6.741,0,0,0-1.009-.074,6.877,6.877,0,1,0,6.877,6.877A6.741,6.741,0,0,0,23.26,15.328Zm-2.5.37a4.428,4.428,0,0,1,.046.639,4.351,4.351,0,1,1-4.351-4.351,4.428,4.428,0,0,1,.639.046A4.362,4.362,0,0,1,20.762,15.7Zm3.354-8.283a1.263,1.263,0,1,1-1.263,1.263A1.263,1.263,0,0,1,24.116,7.415Z" transform="translate(13.9 13.406)" fill="#fff"/>
    </g>
  </g>
</svg>
