<svg xmlns="http://www.w3.org/2000/svg" width="15.592" height="10.914" viewBox="0 0 15.592 10.914">
  <path id="Path_1012" data-name="Path 1012" d="M16.033,6.559v7.8H3.559v-7.8H16.033m0-1.559H3.559A1.557,1.557,0,0,0,2.008,6.559L2,14.355a1.564,1.564,0,0,0,1.559,1.559H16.033a1.564,1.564,0,0,0,1.559-1.559v-7.8A1.564,1.564,0,0,0,16.033,5ZM9.016,7.339h1.559V8.9H9.016Zm0,2.339h1.559v1.559H9.016ZM6.678,7.339H8.237V8.9H6.678Zm0,2.339H8.237v1.559H6.678Zm-2.339,0H5.9v1.559H4.339Zm0-2.339H5.9V8.9H4.339Zm2.339,4.678h6.237v1.559H6.678Zm4.678-2.339h1.559v1.559H11.355Zm0-2.339h1.559V8.9H11.355Zm2.339,2.339h1.559v1.559H13.694Zm0-2.339h1.559V8.9H13.694Z" transform="translate(-2 -5)" fill="#053c6d"/>
</svg>
