<svg id="Group_201" data-name="Group 201" xmlns="http://www.w3.org/2000/svg" width="15.82" height="18" viewBox="0 0 15.82 18">
  <path id="Path_99" data-name="Path 99" d="M125.746,9.492A4.746,4.746,0,1,0,121,4.746,4.751,4.751,0,0,0,125.746,9.492Zm0-8.437a3.691,3.691,0,1,1-3.691,3.691A3.7,3.7,0,0,1,125.746,1.055Z" transform="translate(-117.836)" fill="#5f5f5f"/>
  <path id="Path_100" data-name="Path 100" d="M44.815,302.046A6.766,6.766,0,0,0,39.965,300H37.855a6.766,6.766,0,0,0-4.85,2.046A6.917,6.917,0,0,0,31,306.926a.527.527,0,0,0,.527.527H46.293a.527.527,0,0,0,.527-.527A6.917,6.917,0,0,0,44.815,302.046ZM32.078,306.4a5.836,5.836,0,0,1,5.778-5.344h2.109a5.836,5.836,0,0,1,5.778,5.344Z" transform="translate(-31 -289.453)" fill="#5f5f5f"/>
</svg>
