<svg xmlns="http://www.w3.org/2000/svg" width="13.797" height="13.809" viewBox="0 0 13.797 13.809">
  <path id="Path_1049" data-name="Path 1049" d="M11.776,2.026A6.9,6.9,0,0,0,.918,10.356l-.9,2.97a.381.381,0,0,0,.463.477l3.108-.836a6.855,6.855,0,0,0,3.295.843h0a6.82,6.82,0,0,0,6.5-4.517A6.928,6.928,0,0,0,11.776,2.026Zm-1.5,7.336a1.78,1.78,0,0,1-1.16.822c-.318.028-.615.145-2.065-.428a7,7,0,0,1-2.942-2.6,3.25,3.25,0,0,1-.718-1.782,1.925,1.925,0,0,1,.6-1.437.633.633,0,0,1,.463-.214c.117,0,.228,0,.332.007.124,0,.262.007.387.29.159.345.49,1.195.532,1.278a.331.331,0,0,1,.014.3,1.041,1.041,0,0,1-.173.29c-.083.1-.18.221-.256.3s-.173.18-.076.352a5.309,5.309,0,0,0,.96,1.195,4.774,4.774,0,0,0,1.388.857c.173.083.276.069.373-.041s.428-.5.546-.677.228-.145.387-.083,1.008.477,1.181.559.29.131.332.2A1.589,1.589,0,0,1,10.277,9.361Z" transform="translate(0.002 -0.006)" fill="#00e676"/>
</svg>
