<svg xmlns="http://www.w3.org/2000/svg" width="14" height="14" viewBox="0 0 14 14">
  <g id="Group_2041" data-name="Group 2041" transform="translate(-4 -2)">
    <path id="Path_1047" data-name="Path 1047" d="M12.4,10.4v2.1H6.8V7.6A2.8,2.8,0,0,1,9.6,4.8a2.723,2.723,0,0,1,1.6.5l1-1A4.109,4.109,0,0,0,10.65,3.54V3.05a1.05,1.05,0,0,0-2.1,0v.49A4.191,4.191,0,0,0,5.4,7.6v4.9H4v1.4H15.2V12.5H13.8V10.4ZM9.6,16A1.4,1.4,0,0,0,11,14.6H8.2A1.4,1.4,0,0,0,9.6,16ZM18,6.2H15.9V4.1H14.5V6.2H12.4V7.6h2.1V9.7h1.4V7.6H18Z" fill="#053c6d"/>
  </g>
</svg>
