<svg id="Group_2089" data-name="Group 2089" xmlns="http://www.w3.org/2000/svg" width="18" height="18" viewBox="0 0 18 18">
  <path id="Path_1047" data-name="Path 1047" d="M14.8,12.8v2.7H7.6V9.2a3.6,3.6,0,0,1,3.6-3.6,3.5,3.5,0,0,1,2.052.648l1.287-1.287A5.283,5.283,0,0,0,12.55,3.98V3.35a1.35,1.35,0,0,0-2.7,0v.63A5.388,5.388,0,0,0,5.8,9.2v6.3H4v1.8H18.4V15.5H16.6V12.8ZM11.2,20A1.805,1.805,0,0,0,13,18.2H9.4A1.805,1.805,0,0,0,11.2,20ZM22,7.4H19.3V4.7H17.5V7.4H14.8V9.2h2.7v2.7h1.8V9.2H22Z" transform="translate(-4 -2)" fill="#053c6d"/>
</svg>
