<svg xmlns="http://www.w3.org/2000/svg" width="43.151" height="60.802" viewBox="0 0 43.151 60.802"><defs><style>.a{fill:#f0c087;}.b{fill:#e6af78;}.c{fill:#fff;}.d{fill:#c7cfe2;}.e{fill:#afb9d2;}.f{fill:#00aaf0;}.g{fill:#959cb5;}.h{fill:#e4eaf8;}.i{fill:#d29b6e;}.j{fill:#0096dc;}.k{fill:#694b4b;}.l{fill:#5a4146;}</style></defs><g transform="translate(-335.677 -34.64)"><path class="a" d="M375.885,40.469h-15.69a2.942,2.942,0,0,1-5.884,0H338.619a2.942,2.942,0,0,0-2.942,2.942v51a2.942,2.942,0,0,0,2.942,2.942h37.266a2.942,2.942,0,0,0,2.942-2.942v-51A2.942,2.942,0,0,0,375.885,40.469Z" transform="translate(0 -1.906)"/><path class="b" d="M375.858,42.43h-5.884a.981.981,0,0,1-.981-.981v-.981h-7.845a2.942,2.942,0,0,1-5.884,0h-7.846v.981a.981.981,0,0,1-.981.981h-5.884a1.961,1.961,0,0,0-1.961,1.961V91.464a1.962,1.962,0,0,0,1.961,1.962h35.3a1.962,1.962,0,0,0,1.961-1.962V44.391A1.961,1.961,0,0,0,375.858,42.43Z" transform="translate(-0.953 -1.906)"/><path class="c" d="M375.83,93.37H342.487a.98.98,0,0,1-.981-.981V47.278a.981.981,0,0,1,.981-.981H375.83a.981.981,0,0,1,.981.981V92.389A.98.98,0,0,1,375.83,93.37Z" transform="translate(-1.906 -3.812)"/><path class="d" d="M370.311,36.6h-3.486a3.891,3.891,0,0,0-6.757,0h-3.486a1.962,1.962,0,0,0-1.961,1.962v3.922a.98.98,0,0,0,.981.981h15.69a.981.981,0,0,0,.981-.981V38.563A1.962,1.962,0,0,0,370.311,36.6Zm-6.865,3.432a1.471,1.471,0,1,1,1.471-1.471A1.471,1.471,0,0,1,363.447,40.033Z" transform="translate(-6.195)"/><path class="e" d="M371.292,46.8H355.6a.981.981,0,0,1-.981-.981h0a.981.981,0,0,1,.981-.981h15.69a.981.981,0,0,1,.981.981h0A.98.98,0,0,1,371.292,46.8Z" transform="translate(-6.194 -3.335)"/><path class="f" d="M371.63,58.963h9.806a.98.98,0,0,0,.981-.981V56.021a.981.981,0,0,0-.981-.981H371.63a.981.981,0,0,0-.981.981v1.962A.981.981,0,0,0,371.63,58.963Z" transform="translate(-11.436 -6.671)"/><path class="g" d="M381.437,67.2H371.63a.981.981,0,1,1,0-1.962h9.806a.981.981,0,0,1,0,1.962Z" transform="translate(-11.436 -10.006)"/><path class="e" d="M375.553,73.031H371.63a.981.981,0,1,1,0-1.962h3.922a.981.981,0,0,1,0,1.962Z" transform="translate(-11.436 -11.912)"/><path class="d" d="M373.813,84.688h-25.5a.981.981,0,0,1,0-1.962h25.5a.981.981,0,0,1,0,1.962Z" transform="translate(-3.812 -15.724)"/><g transform="translate(343.523 70.925)"><path class="f" d="M350.277,90.517h-1.961a.981.981,0,0,1,0-1.962h1.961a.981.981,0,0,1,0,1.962Z" transform="translate(-347.335 -88.555)"/><path class="f" d="M350.277,108h-1.961a.981.981,0,0,1,0-1.961h1.961a.981.981,0,0,1,0,1.961Z" transform="translate(-347.335 -94.273)"/><path class="f" d="M350.277,102.174h-1.961a.981.981,0,0,1,0-1.961h1.961a.981.981,0,0,1,0,1.961Z" transform="translate(-347.335 -92.367)"/><path class="f" d="M350.277,96.345h-1.961a.981.981,0,0,1,0-1.961h1.961a.981.981,0,0,1,0,1.961Z" transform="translate(-347.335 -90.461)"/></g><path class="d" d="M362.943,90.517h-5.884a.981.981,0,0,1,0-1.962h5.884a.981.981,0,0,1,0,1.962Z" transform="translate(-6.671 -17.63)"/><path class="e" d="M366.866,108h-9.807a.981.981,0,0,1,0-1.961h9.807a.981.981,0,1,1,0,1.961Z" transform="translate(-6.671 -23.348)"/><path class="d" d="M362.943,102.174h-5.884a.981.981,0,0,1,0-1.961h5.884a.981.981,0,0,1,0,1.961Z" transform="translate(-6.671 -21.442)"/><path class="e" d="M366.866,96.345h-9.807a.981.981,0,0,1,0-1.961h9.807a.981.981,0,1,1,0,1.961Z" transform="translate(-6.671 -19.536)"/><g transform="translate(364.117 70.925)"><path class="h" d="M383.819,96.345h-4.9a.981.981,0,0,1,0-1.961h4.9a.981.981,0,0,1,0,1.961Z" transform="translate(-377.935 -90.461)"/><path class="h" d="M383.819,90.517h-4.9a.981.981,0,0,1,0-1.962h4.9a.981.981,0,0,1,0,1.962Z" transform="translate(-377.935 -88.555)"/><path class="h" d="M383.819,102.174h-4.9a.981.981,0,0,1,0-1.961h4.9a.981.981,0,0,1,0,1.961Z" transform="translate(-377.935 -92.367)"/><path class="h" d="M383.819,108h-4.9a.981.981,0,0,1,0-1.961h4.9a.981.981,0,0,1,0,1.961Z" transform="translate(-377.935 -94.273)"/></g><path class="b" d="M359.476,69.227l-2.3-1.148a.98.98,0,0,1-.542-.877V65.241h-3.922V67.2a.98.98,0,0,1-.542.877l-2.3,1.148a1.962,1.962,0,0,0-1.084,1.755v2.1a.98.98,0,0,0,.981.981h9.807a.98.98,0,0,0,.981-.981v-2.1A1.962,1.962,0,0,0,359.476,69.227Z" transform="translate(-4.289 -10.006)"/><path class="i" d="M354.528,65.24V67.2a.976.976,0,0,1-.189.568,5.813,5.813,0,0,0,4.3,0,.973.973,0,0,1-.19-.568V65.24Z" transform="translate(-6.102 -10.006)"/><path class="f" d="M359.476,70.729l-1.789-.894a3.873,3.873,0,0,1-6.022,0l-1.789.894a1.961,1.961,0,0,0-1.084,1.755v2.1a.981.981,0,0,0,.981.981h9.807a.981.981,0,0,0,.981-.981v-2.1A1.962,1.962,0,0,0,359.476,70.729Z" transform="translate(-4.289 -11.509)"/><g transform="translate(344.503 60.07)"><path class="j" d="M351.734,75.436a1.962,1.962,0,0,0-.785-1.569l-1.92-1.44a1.947,1.947,0,0,0-.237.905v2.1a.98.98,0,0,0,.981.981h1.961Z" transform="translate(-348.792 -72.426)"/><path class="j" d="M361.906,75.436a1.962,1.962,0,0,1,.785-1.569l1.921-1.44a1.947,1.947,0,0,1,.237.905v2.1a.981.981,0,0,1-.981.981h-1.962v-.981Z" transform="translate(-353.08 -72.426)"/></g><path class="a" d="M355.629,62.409h0a3.923,3.923,0,0,1-3.923-3.923V56.525a2.942,2.942,0,0,1,2.942-2.942h1.961a2.942,2.942,0,0,1,2.942,2.942v1.961A3.923,3.923,0,0,1,355.629,62.409Z" transform="translate(-5.241 -6.194)"/><path class="b" d="M354.648,58.487V56.525a2.936,2.936,0,0,1,2.452-2.893,2.88,2.88,0,0,0-.491-.05h-1.961a2.942,2.942,0,0,0-2.942,2.942v1.961a3.912,3.912,0,0,0,5.394,3.632A3.918,3.918,0,0,1,354.648,58.487Z" transform="translate(-5.241 -6.194)"/><path class="k" d="M351.706,56.525a27.144,27.144,0,0,0,7.845.981v-.981a2.942,2.942,0,0,0-2.942-2.942h-1.961a2.942,2.942,0,0,0-2.942,2.942Z" transform="translate(-5.241 -6.194)"/><path class="l" d="M354.648,56.525a2.936,2.936,0,0,1,2.452-2.893,2.88,2.88,0,0,0-.491-.05h-1.961a2.942,2.942,0,0,0-2.942,2.942,19.525,19.525,0,0,0,2.942.63Z" transform="translate(-5.241 -6.194)"/></g></svg>