<svg xmlns="http://www.w3.org/2000/svg" width="14.906" height="14.934" viewBox="0 0 14.906 14.934">
  <g id="Group_1903" data-name="Group 1903" transform="translate(-240.083 180.25)">
    <g id="Group_1903-2" data-name="Group 1903" transform="translate(240.333 -180)">
      <path id="Path_964" data-name="Path 964" d="M515.475,59.369c-.026.1-.05.208-.079.31a2.11,2.11,0,1,1,.048-.925c.008.046.02.09.031.135Zm-2.108-1.522a1.268,1.268,0,1,0,1.263,1.263A1.27,1.27,0,0,0,513.367,57.848Z" transform="translate(-501.07 -48.093)" fill="#053c6d" stroke="#053c6d" stroke-width="0.5"/>
      <path id="Path_965" data-name="Path 965" d="M378.287-180c.112.028.226.053.337.085a2.121,2.121,0,0,1,1.516,2.181,2.116,2.116,0,0,1-1.812,1.939,2.111,2.111,0,0,1-2.375-1.744,2.115,2.115,0,0,1,1.751-2.435.472.472,0,0,0,.077-.026Zm-.254.846a1.271,1.271,0,0,0-1.264,1.262,1.271,1.271,0,0,0,1.267,1.274,1.271,1.271,0,0,0,1.264-1.262A1.27,1.27,0,0,0,378.033-179.154Z" transform="translate(-370.831 180)" fill="#053c6d" stroke="#053c6d" stroke-width="0.5"/>
      <path id="Path_966" data-name="Path 966" d="M358.51,167.451c-.258-.038-.518-.068-.775-.115a6.009,6.009,0,0,1-1.655-.567l.376-.746a5.541,5.541,0,0,0,4.95,0c.062.12.126.244.189.368s.121.242.2.39c-.269.11-.528.228-.794.323a5.852,5.852,0,0,1-1.534.322.755.755,0,0,0-.108.024Z" transform="translate(-351.729 -153.016)" fill="#053c6d" stroke="#053c6d" stroke-width="0.5"/>
      <path id="Path_967" data-name="Path 967" d="M244.553,59.121a2.11,2.11,0,1,1-2.1-2.12A2.112,2.112,0,0,1,244.553,59.121Zm-2.11-1.274a1.268,1.268,0,1,0,1.266,1.275A1.268,1.268,0,0,0,242.443,57.847Z" transform="translate(-240.333 -48.092)" fill="#053c6d" stroke="#053c6d" stroke-width="0.5"/>
      <path id="Path_968" data-name="Path 968" d="M264.782-101.47l-.822-.045c-.175-1.509,1.335-4.136,2.839-4.945l.457.7a5.525,5.525,0,0,0-1.745,1.855A5.509,5.509,0,0,0,264.782-101.47Z" transform="translate(-263.059 109.224)" fill="#053c6d" stroke="#053c6d" stroke-width="0.5"/>
      <path id="Path_969" data-name="Path 969" d="M515.327-101.915l-.842.047a5.581,5.581,0,0,0-2.477-4.3l.463-.707A6.413,6.413,0,0,1,515.327-101.915Z" transform="translate(-501.797 109.624)" fill="#053c6d" stroke="#053c6d" stroke-width="0.5"/>
    </g>
  </g>
</svg>
