<svg xmlns="http://www.w3.org/2000/svg" width="16.25" height="13" viewBox="0 0 16.25 13">
  <path id="Path_1041" data-name="Path 1041" d="M16.25,4.875V1.625A1.63,1.63,0,0,0,14.625,0h-13A1.623,1.623,0,0,0,.008,1.625v3.25A1.623,1.623,0,0,1,1.625,6.5,1.625,1.625,0,0,1,0,8.125v3.25A1.63,1.63,0,0,0,1.625,13h13a1.63,1.63,0,0,0,1.625-1.625V8.125a1.625,1.625,0,0,1,0-3.25ZM14.625,3.689a3.244,3.244,0,0,0,0,5.622v2.064h-13V9.311A3.261,3.261,0,0,0,3.25,6.5,3.243,3.243,0,0,0,1.633,3.689L1.625,1.625h13Zm-3.7.572L10.364,3.7,8.125,5.934,5.886,3.7l-.565.566L7.56,6.5,5.321,8.739l.565.565L8.125,7.065,10.364,9.3l.565-.565L8.69,6.5Z" fill="#053c6d"/>
</svg>
