<svg xmlns="http://www.w3.org/2000/svg" width="25" height="25" viewBox="0 0 25 25">
  <path id="Path_1064" data-name="Path 1064" d="M14.487,2A12.5,12.5,0,1,0,27,14.5,12.494,12.494,0,0,0,14.487,2ZM23.15,9.5H19.462a19.561,19.561,0,0,0-1.725-4.45A10.037,10.037,0,0,1,23.15,9.5ZM14.5,4.55A17.608,17.608,0,0,1,16.887,9.5H12.113A17.608,17.608,0,0,1,14.5,4.55ZM4.825,17a9.778,9.778,0,0,1,0-5H9.05a20.644,20.644,0,0,0-.175,2.5A20.644,20.644,0,0,0,9.05,17ZM5.85,19.5H9.537a19.561,19.561,0,0,0,1.725,4.45A9.984,9.984,0,0,1,5.85,19.5Zm3.688-10H5.85a9.984,9.984,0,0,1,5.413-4.45A19.561,19.561,0,0,0,9.537,9.5ZM14.5,24.45a17.608,17.608,0,0,1-2.387-4.95h4.775A17.608,17.608,0,0,1,14.5,24.45ZM17.425,17h-5.85a18.391,18.391,0,0,1-.2-2.5,18.231,18.231,0,0,1,.2-2.5h5.85a18.231,18.231,0,0,1,.2,2.5A18.391,18.391,0,0,1,17.425,17Zm.313,6.95a19.561,19.561,0,0,0,1.725-4.45H23.15A10.037,10.037,0,0,1,17.737,23.95ZM19.95,17a20.644,20.644,0,0,0,.175-2.5A20.644,20.644,0,0,0,19.95,12h4.225a9.778,9.778,0,0,1,0,5Z" transform="translate(-2 -2)" fill="#b4b4b4"/>
</svg>
